<svg width="96" height="33" viewBox="0 0 96 33" fill="none" xmlns="http://www.w3.org/2000/svg">
<path d="M33.5873 9.34826C33.365 10.6395 33.1661 11.796 32.9673 12.9512C32.6375 14.8685 32.3016 16.7832 31.9879 18.7029C31.9434 18.9786 31.8199 19.03 31.584 19.0288C30.6788 19.0239 29.7747 19.0153 28.8694 19.0325C28.5335 19.0386 28.5001 18.8916 28.5495 18.6221C29.235 14.8721 29.9192 11.1222 30.5972 7.37221C30.7417 6.57346 30.8788 5.77349 30.9925 4.97106C31.0443 4.60354 31.1777 4.4504 31.5828 4.46388C32.5276 4.49451 33.4749 4.50186 34.4197 4.46143C34.8742 4.44183 35.0595 4.61824 35.2213 5.01149C36.4279 7.93574 37.6593 10.8502 38.8819 13.7683C38.9116 13.8394 38.9128 13.9313 39.0746 13.9349C39.3821 12.1574 39.6909 10.3724 39.9997 8.58626C40.2133 7.34771 40.4307 6.10916 40.6357 4.86815C40.6839 4.57659 40.8111 4.4602 41.1236 4.46755C41.9461 4.48715 42.7699 4.50186 43.59 4.46388C44.0803 4.44183 44.126 4.64396 44.0531 5.03844C43.6344 7.31341 43.2269 9.59082 42.8168 11.8682C42.4142 14.104 42.0005 16.3373 41.625 18.5768C41.562 18.9492 41.4311 19.0411 41.0816 19.0349C40.0948 19.0166 39.108 19.0153 38.1212 19.0362C37.7815 19.0435 37.6296 18.9345 37.4962 18.6135C36.2859 15.6893 35.0508 12.7748 33.8232 9.85789C33.7664 9.72926 33.7059 9.60675 33.5873 9.34826Z" fill="#4B5BA9"/>
<path d="M9.61474 11.4595C10.9424 11.7658 11.7847 12.5278 12.0379 13.7712C12.3207 15.1629 11.9823 16.437 10.914 17.4514C9.80371 18.5049 8.40563 18.9251 6.93222 18.9803C4.75606 19.0624 2.57497 19.006 0.396341 19.033C-0.0174006 19.0379 -0.0309862 18.8418 0.0221209 18.549C0.843428 13.9807 1.66597 9.4112 2.48481 4.84289C2.51939 4.653 2.54162 4.46802 2.79728 4.47659C5.13399 4.555 7.48799 4.24138 9.80618 4.66403C11.4624 4.96662 12.4973 6.00181 12.5974 7.25874C12.7456 9.11106 11.8736 10.5358 10.2076 11.1704C10.026 11.2378 9.81359 11.2451 9.61474 11.4595ZM3.75444 16.3059C5.05865 16.2496 6.31593 16.4591 7.5201 15.9629C8.31547 15.6358 8.76627 14.8983 8.644 14.0726C8.54149 13.3866 7.89309 12.8904 7.0162 12.8647C6.31716 12.8439 5.61195 12.9161 4.92032 12.8402C4.3979 12.7826 4.29168 13.0178 4.22993 13.4209C4.08296 14.3605 3.92117 15.2977 3.75444 16.3059ZM6.22207 10.3435C6.93222 10.3178 7.61273 10.4011 8.24384 10.0703C8.9614 9.69297 9.29857 9.04 9.15284 8.2535C9.05774 7.74387 8.51185 7.35552 7.756 7.27589C7.53245 7.25262 7.3052 7.25139 7.08166 7.26119C6.5123 7.28447 5.76757 7.02353 5.42175 7.36165C5.08953 7.68629 5.15622 8.41889 5.05989 8.97385C4.98455 9.4063 4.72395 10.0176 4.91291 10.2345C5.17968 10.5383 5.79721 10.2945 6.22207 10.3435Z" fill="#4B5BA9"/>
<path d="M35.3791 31.752C35.6162 31.6932 35.6681 31.4972 35.762 31.3502C37.7455 28.2691 39.7351 25.1917 41.6964 22.0959C41.9743 21.6574 42.2731 21.4785 42.7845 21.5287C43.2328 21.5728 43.691 21.5667 44.1393 21.53C44.5283 21.4981 44.6271 21.6917 44.6864 22.0114C45.2879 25.2187 45.8857 28.4259 46.5143 31.627C46.6193 32.1624 46.5798 32.4025 45.9474 32.3351C45.4188 32.28 44.8779 32.302 44.3456 32.3314C44.0269 32.3486 43.8997 32.2224 43.8602 31.937C43.8293 31.7165 43.7886 31.4959 43.7441 31.2779C43.5144 30.1508 43.5144 30.1508 42.3818 30.1508C41.5395 30.1508 40.696 30.1631 39.8537 30.1447C39.535 30.1373 39.2905 30.1876 39.1695 30.5134C39.1423 30.5882 39.0793 30.6494 39.0361 30.718C38.7039 31.2485 38.5285 32.0068 38.0048 32.2518C37.4812 32.4968 36.7562 32.3216 36.1201 32.3229C35.1333 32.3265 34.1465 32.3155 33.1597 32.329C32.8571 32.3327 32.7003 32.2604 32.5743 31.9468C32.084 30.7229 31.5085 29.5309 31.0391 28.3009C30.8452 27.7913 30.4945 27.991 30.1857 27.9555C29.8263 27.9138 29.8189 28.1993 29.7794 28.4394C29.5941 29.5603 29.4002 30.68 29.2286 31.8034C29.1705 32.1795 29.0396 32.3731 28.6049 32.3339C28.1158 32.2898 27.6168 32.2996 27.1265 32.3314C26.7362 32.3572 26.6288 32.2469 26.7004 31.8573C27.087 29.7637 27.4526 27.6664 27.8243 25.5703C28.0256 24.4322 28.2393 23.2965 28.4171 22.1547C28.4863 21.7125 28.6246 21.5018 29.1409 21.5238C30.3722 21.5753 31.606 21.5557 32.8398 21.5618C33.1091 21.563 33.366 21.6084 33.6278 21.6708C35.1049 22.0188 35.9497 22.8102 36.0584 23.9789C36.214 25.6352 35.531 26.8909 34.0551 27.4348C33.4796 27.6468 33.4611 27.8403 33.7093 28.3206C34.2947 29.4513 34.827 30.6078 35.3791 31.752ZM31.2108 26.113C32.0729 26.113 32.5224 26.0346 32.8868 25.8226C33.5784 25.4208 33.7315 24.2864 33.1153 23.9115C32.4088 23.4827 31.5789 23.5232 30.8354 23.6702C30.3809 23.7596 30.5908 24.4371 30.4587 24.8377C30.4266 24.9332 30.408 25.0337 30.3907 25.1341C30.2289 26.113 30.2289 26.113 31.2108 26.113ZM42.7733 24.5228C42.7227 24.524 42.6721 24.5253 42.6214 24.5265C41.9212 25.7026 41.2209 26.8786 40.4712 28.1392C41.3679 28.1392 42.1608 28.1417 42.9549 28.138C43.1216 28.1368 43.2933 28.1294 43.2562 27.8771C43.092 26.7586 42.9339 25.6401 42.7733 24.5228Z" fill="#4B5BA9"/>
<path d="M49.8748 10.4421C50.8666 9.64947 51.6434 8.64858 52.5339 7.75673C53.5157 6.77544 54.4593 5.75618 55.4152 4.74794C55.561 4.59481 55.6956 4.46985 55.9315 4.47107C57.2616 4.47842 58.5906 4.47475 59.9108 4.47475C58.9524 5.46093 58.0274 6.44712 57.0653 7.39533C55.7993 8.64246 54.5124 9.86998 53.2144 11.084C52.9229 11.3572 52.9476 11.5385 53.1588 11.8436C54.6792 14.0365 56.1797 16.2416 57.6853 18.4443C57.7964 18.6072 57.9039 18.7726 58.0731 19.0262C56.6503 19.0262 55.3251 19.0201 53.9999 19.0311C53.7245 19.0336 53.6664 18.8351 53.5651 18.6722C52.2856 16.6189 51.0098 14.562 49.7328 12.5076C49.6908 12.4402 49.6426 12.3777 49.5167 12.1952C49.3783 12.8922 49.2511 13.4815 49.1474 14.0744C48.8843 15.5703 48.6274 17.0673 48.3804 18.5656C48.3261 18.8939 48.2087 19.0519 47.8296 19.0372C47.0083 19.0054 46.1857 19.014 45.3644 19.0336C45.0174 19.0421 44.8877 18.9552 44.9544 18.5889C45.5065 15.5605 46.0462 12.5284 46.5908 9.49879C46.8601 8.00297 47.1515 6.51082 47.3887 5.01011C47.4517 4.60828 47.5616 4.44902 47.9901 4.46495C48.8114 4.49557 49.634 4.48577 50.4553 4.46862C50.8283 4.46127 50.8814 4.5703 50.8184 4.9366C50.5035 6.76932 50.0638 8.5812 49.8736 10.436C49.8476 10.4445 49.8217 10.4519 49.7982 10.4641C49.7958 10.4654 49.8081 10.4948 49.8143 10.5119C49.8316 10.4886 49.8526 10.4654 49.8748 10.4421Z" fill="#4B5BA9"/>
<path d="M11.666 19.0268C12.7454 17.3447 13.752 15.7717 14.7623 14.2024C16.7655 11.0858 18.7737 7.97169 20.7708 4.85019C20.9425 4.5819 21.1203 4.45449 21.4562 4.46674C22.2776 4.49369 23.1013 4.49492 23.9226 4.46674C24.2845 4.45449 24.4142 4.5623 24.4796 4.91757C24.9008 7.18764 25.3528 9.4528 25.7863 11.7204C26.2248 14.0101 26.6434 16.3022 27.1004 18.5882C27.177 18.9704 27.0881 19.0415 26.7348 19.0354C25.8098 19.0194 24.8847 19.0194 23.9597 19.0354C23.6386 19.0403 23.4904 18.9643 23.4484 18.6103C23.3644 17.9058 23.1989 17.2124 23.1013 16.5092C23.0643 16.2446 22.9556 16.1638 22.7098 16.165C21.024 16.1687 19.3381 16.1736 17.6523 16.1601C17.3608 16.1576 17.2682 16.3365 17.1533 16.5264C16.71 17.2565 16.2579 17.983 15.8269 18.7205C15.7133 18.9141 15.6009 19.0341 15.3576 19.0329C14.1658 19.0219 12.9752 19.0268 11.666 19.0268ZM21.912 8.25713C20.8572 10.0347 19.8828 11.6775 18.8762 13.3755C20.0001 13.3755 21.0264 13.3363 22.0491 13.3914C22.6221 13.4221 22.6728 13.204 22.5987 12.7434C22.3665 11.3076 22.1565 9.87055 21.912 8.25713Z" fill="#4B5BA9"/>
<path d="M55.3891 28.5959C55.7843 26.3112 56.1733 24.1562 56.5191 21.9952C56.5784 21.6216 56.7031 21.5199 57.0564 21.5334C57.6109 21.5554 58.1667 21.5579 58.7212 21.5321C59.0633 21.5162 59.1522 21.6424 59.0954 21.9523C58.4915 25.2613 57.8826 28.5702 57.3021 31.884C57.2367 32.2577 57.1033 32.3471 56.7538 32.3324C56.1795 32.3067 55.6002 32.292 55.0284 32.3361C54.5505 32.3728 54.317 32.2258 54.133 31.7652C53.3055 29.6936 52.4311 27.6404 51.5715 25.581C51.5258 25.472 51.4554 25.3727 51.348 25.1829C51.1331 26.419 50.9293 27.5742 50.7317 28.7307C50.5501 29.7891 50.3698 30.8476 50.1981 31.9073C50.1487 32.2111 50.0326 32.3569 49.6844 32.3349C49.1521 32.3006 48.6148 32.3018 48.0825 32.3336C47.6799 32.3581 47.5835 32.2221 47.6539 31.8473C47.9306 30.3735 48.1924 28.8961 48.4555 27.4198C48.7643 25.6851 49.0878 23.9517 49.3657 22.2108C49.4472 21.7012 49.6103 21.4623 50.1722 21.5285C50.6378 21.5836 51.1244 21.5958 51.5876 21.526C52.252 21.4268 52.5114 21.7404 52.7337 22.299C53.5093 24.2383 54.3319 26.1592 55.1371 28.0863C55.1927 28.2149 55.2606 28.3362 55.3891 28.5959Z" fill="#4B5BA9"/>
<path d="M95.2958 32.3233C94.3707 32.3233 93.5149 32.3123 92.659 32.3294C92.3811 32.3355 92.3366 32.1763 92.2539 31.9778C91.7475 30.7613 91.1942 29.5632 90.7261 28.3332C90.5297 27.8174 90.1691 27.9743 89.8307 27.9522C89.4553 27.9289 89.5059 28.2033 89.4651 28.4484C89.2749 29.6073 89.0489 30.7601 88.8698 31.9215C88.8229 32.2253 88.7389 32.3429 88.419 32.3306C87.8238 32.3074 87.2272 32.3184 86.6307 32.3257C86.3701 32.3294 86.2935 32.2841 86.3491 31.979C86.9333 28.7902 87.4878 25.5964 88.0634 22.4051C88.2202 21.534 88.2412 21.5181 89.1737 21.5426C90.505 21.5757 91.8451 21.4079 93.1678 21.6565C94.766 21.9579 95.6107 22.7138 95.7355 24.0957C95.8676 25.5535 95.3082 26.6732 93.8928 27.3813C93.1332 27.7611 93.132 27.7513 93.5013 28.5268C94.0916 29.7678 94.677 31.0124 95.2958 32.3233ZM90.8904 26.1109C91.9352 26.1109 92.2094 26.0533 92.6528 25.7397C93.3568 25.2423 93.3518 24.1557 92.6207 23.8188C91.9266 23.4991 91.1325 23.488 90.4581 23.6889C90.0456 23.8115 90.1839 24.5465 90.0777 25.0083C90.0691 25.0476 90.0691 25.0892 90.0617 25.1284C89.8764 26.1109 89.8764 26.1109 90.8904 26.1109Z" fill="#4B5BA9"/>
<path d="M77.2949 32.3259C77.91 28.8111 78.5151 25.3613 79.1141 21.9091C79.1611 21.6395 79.2883 21.5342 79.5674 21.5354C81.6423 21.5428 83.7184 21.5452 85.7933 21.5342C86.1132 21.533 86.1922 21.6469 86.123 21.9311C86.0564 22.2068 85.9958 22.4836 85.9403 22.7617C85.7562 23.6732 85.7575 23.6732 84.8077 23.6732C83.8012 23.6732 82.7934 23.6854 81.7868 23.667C81.4187 23.6597 81.1977 23.7332 81.1915 24.151C81.1878 24.4119 81.1248 24.6728 81.0816 24.9326C80.9445 25.7472 80.9433 25.7472 81.7979 25.7472C82.7847 25.7472 83.7715 25.7607 84.7571 25.7399C85.1399 25.7313 85.2165 25.8722 85.1387 26.2103C85.0202 26.7199 85.0905 27.3974 84.7793 27.7049C84.4533 28.0259 83.7653 27.7907 83.2355 27.8017C82.4957 27.8176 81.7559 27.8201 81.0161 27.7992C80.6691 27.7894 80.4949 27.8752 80.4566 28.255C80.3949 28.8601 79.9984 29.6528 80.2529 30.008C80.5221 30.3841 81.3953 30.1048 82.0042 30.1183C82.8662 30.1367 83.7308 30.144 84.5928 30.1134C84.9868 30.0999 85.114 30.2188 85.0263 30.5912C84.9522 30.9072 84.8275 31.2282 84.8398 31.5431C84.8707 32.3002 84.4483 32.3467 83.8407 32.3369C81.8893 32.3063 79.9367 32.3259 77.9841 32.3259C77.7618 32.3259 77.5395 32.3259 77.2949 32.3259Z" fill="#4B5BA9"/>
<path d="M63.266 32.5887C61.7061 32.563 60.4686 32.2249 59.4126 31.3477C59.1002 31.088 58.9421 30.854 59.4077 30.5906C59.5485 30.511 59.6609 30.3836 59.7881 30.2819C60.1067 30.0271 60.392 29.6865 60.7564 29.5432C61.2133 29.3618 61.3665 29.9474 61.7222 30.1116C62.4595 30.4497 63.1882 30.6127 63.9786 30.3578C64.4949 30.1912 64.7999 29.8433 64.8777 29.3104C64.9481 28.8265 64.706 28.4896 64.3244 28.2385C63.8959 27.9567 63.4179 27.7729 62.9313 27.6137C61.7518 27.2265 60.7996 26.5809 60.6366 25.2627C60.4501 23.7571 61.1034 22.6264 62.4224 21.8705C64.028 20.9505 66.5734 21.084 67.9061 22.1216C68.3334 22.4549 68.4742 22.7195 67.9369 23.0539C67.8171 23.1287 67.7183 23.2377 67.6109 23.3332C67.3355 23.5758 67.0959 23.9188 66.7735 24.0352C66.4339 24.1577 66.2486 23.6934 65.9485 23.5476C65.1593 23.1642 64.1441 23.2524 63.5945 23.7976C63.0251 24.3623 63.1141 25.0839 63.8255 25.4624C64.2009 25.6621 64.6035 25.8189 65.0037 25.9696C66.7896 26.6397 67.7085 27.7447 67.6059 29.1181C67.4787 30.8234 66.3425 32.0521 64.5208 32.4343C64.0404 32.5323 63.5537 32.6193 63.266 32.5887Z" fill="#4B5BA9"/>
<path d="M72.3209 25.9696C73.5226 25.9696 74.6885 25.9794 75.8544 25.9647C76.2533 25.9598 76.4818 25.9807 76.3076 26.4915C76.1409 26.9828 76.3113 27.6786 75.9433 27.9812C75.574 28.285 74.9182 28.0596 74.3871 28.0719C73.7511 28.0866 73.1113 28.1049 72.4765 28.0657C72.0492 28.0388 71.9121 28.2091 71.8491 28.595C71.6663 29.7135 71.4366 30.8246 71.2588 31.9431C71.2106 32.2482 71.1068 32.3474 70.8005 32.3339C70.267 32.3106 69.7298 32.2972 69.1987 32.3364C68.7454 32.3707 68.6898 32.1845 68.759 31.8096C69.0628 30.1349 69.3506 28.4578 69.6495 26.7831C69.9224 25.2481 70.2139 23.7155 70.4696 22.1768C70.5474 21.7076 70.7005 21.5116 71.2415 21.5251C73.1101 21.5679 74.9812 21.5569 76.8498 21.5312C77.3204 21.5251 77.5143 21.6476 77.35 22.1057C77.1685 22.6154 77.3883 23.3541 76.9462 23.6199C76.5571 23.8539 75.9124 23.6726 75.3813 23.6738C74.6416 23.6751 73.9018 23.6787 73.162 23.6714C72.8841 23.6689 72.721 23.7118 72.6803 24.0573C72.6074 24.6796 72.453 25.2897 72.3209 25.9696Z" fill="#4B5BA9"/>
<path d="M23.1512 21.5404C24.4048 21.5404 25.6583 21.5478 26.9107 21.5355C27.2799 21.5319 27.4874 21.5404 27.3429 22.028C27.1824 22.567 27.3491 23.3315 26.9625 23.6427C26.55 23.9759 25.8177 23.7321 25.2248 23.7394C23.9997 23.7529 24.033 23.7492 23.8329 24.9596C23.4427 27.3179 23.0079 29.6676 22.6016 32.0234C22.5633 32.2451 22.4793 32.3346 22.2471 32.3309C21.6098 32.3199 20.9726 32.3125 20.3365 32.3321C19.9956 32.3432 19.982 32.1937 20.029 31.9254C20.4897 29.3527 20.9269 26.7764 21.411 24.2086C21.49 23.7872 21.3925 23.7272 21.0183 23.7382C20.3414 23.759 19.6609 23.7149 18.9854 23.7541C18.5272 23.7799 18.4629 23.5802 18.5346 23.2151C18.6161 22.7986 18.7297 22.3833 18.7618 21.9631C18.7902 21.6078 18.9434 21.5306 19.2682 21.5343C20.5625 21.549 21.8569 21.5404 23.1512 21.5404Z" fill="#4B5BA9"/>
<path d="M61.9792 8.75487C61.9533 8.48903 62.0274 8.27587 62.2065 8.07863C63.108 7.08387 64.0034 6.08298 64.8359 5.02697C65.0063 4.81135 65.073 4.71947 64.8692 4.49161C63.9862 3.49685 63.1315 2.47636 62.2534 1.4767C61.9335 1.11285 61.8866 0.718373 62.0533 0.298172C62.1768 -0.0117727 62.4806 0.0384555 62.7437 0.0531564C63.0784 0.0715325 63.2093 0.370451 63.3847 0.572589C64.4011 1.74621 65.3929 2.94066 66.4007 4.12286C66.7551 4.53816 66.7638 4.94244 66.413 5.35651C65.3768 6.58526 64.3357 7.80912 63.3081 9.04522C63.0389 9.36864 62.7301 9.5867 62.3114 9.44827C61.9977 9.34659 61.9397 9.05012 61.9792 8.75487Z" fill="#4B5BA9"/>
<path d="M70.3465 4.75728C70.4317 5.10398 70.2724 5.31836 70.0773 5.54623C69.083 6.70515 68.1061 7.87755 67.1156 9.03892C66.9649 9.21533 66.797 9.41012 66.5586 9.45177C66.2745 9.50078 65.8979 9.5069 65.8126 9.20676C65.7299 8.91274 65.6373 8.55134 65.9114 8.23895C66.8501 7.17191 67.7677 6.08771 68.7039 5.01822C68.8941 4.80138 68.8681 4.66172 68.6792 4.44979C67.7319 3.38887 66.7883 2.32428 65.8793 1.23151C65.6397 0.943616 65.6447 0.474412 65.8769 0.223271C66.1399 -0.0609467 66.5808 -0.100149 66.8958 0.260023C67.68 1.15923 68.4507 2.06946 69.2288 2.97357C69.477 3.26146 69.724 3.55058 69.9834 3.82867C70.2403 4.10431 70.4749 4.37873 70.3465 4.75728Z" fill="#4B5BA9"/>
<path d="M49.886 10.4409C49.8607 10.4687 49.8355 10.4965 49.8088 10.5243C49.8013 10.5052 49.7865 10.4687 49.7894 10.4672C49.8177 10.4526 49.8503 10.4438 49.88 10.4336C49.88 10.4351 49.886 10.4409 49.886 10.4409Z" fill="white"/>
</svg>
