<svg width="136" height="31" viewBox="0 0 136 31" fill="none" xmlns="http://www.w3.org/2000/svg">
<path d="M92.9171 19.5228C92.9171 20.7251 92.8635 21.9306 92.9329 23.1298C92.9898 24.0923 92.7877 24.5025 91.6699 24.493C87.9438 24.4646 87.9501 24.5151 87.9375 20.8545C87.9343 19.3398 87.9722 17.8188 87.8459 16.3135C87.7038 14.6126 86.9965 14.0162 85.4524 14.0225C83.9367 14.0288 83.0273 14.8303 82.9673 16.4555C82.8883 18.6487 82.8946 20.8482 82.9641 23.0414C82.9988 24.1017 82.721 24.493 81.5779 24.4899C77.9434 24.4836 77.956 24.5309 77.9402 20.9145C77.9339 19.2956 78.035 17.6768 77.8076 16.0611C77.6024 14.5968 76.7277 13.9972 75.3288 14.0351C73.8921 14.0761 73.049 14.8493 72.9984 16.263C72.9163 18.5603 72.8848 20.864 72.9416 23.1613C72.97 24.209 72.6227 24.4772 71.6027 24.4867C67.8798 24.5214 67.8798 24.5561 67.883 20.8293C67.883 19.4692 67.9019 18.1122 67.8861 16.7521C67.8546 13.6186 69.3703 11.3433 72.0069 9.85699C74.6247 8.38013 77.2645 8.62312 79.6991 10.3777C80.2927 10.8037 80.6432 10.7153 81.1958 10.3335C83.6588 8.63258 86.2734 8.39591 88.9006 9.88854C91.4614 11.3402 92.835 13.5744 92.8793 16.5502C92.895 17.5442 92.8824 18.5351 92.8824 19.5291C92.9014 19.5228 92.9077 19.5228 92.9171 19.5228Z" fill="#303069"/>
<path d="M65.9603 20.0707C65.9603 20.4368 65.9603 20.7997 65.9603 21.1658C65.9635 24.8106 65.834 24.921 62.089 24.4603C61.9342 24.4414 61.6722 24.4729 61.6374 24.3972C60.8543 22.7468 59.7902 24.0501 58.9344 24.211C56.1967 24.7254 53.5727 24.6118 51.7349 22.3271C49.7866 19.9035 49.4361 17.117 50.5192 14.0813C52.2243 9.31619 58.7955 6.71591 63.6489 11.4179C65.174 12.8947 65.875 14.9238 65.9319 17.0949C65.9571 18.0858 65.935 19.0767 65.935 20.0676C65.9477 20.0707 65.954 20.0707 65.9603 20.0707ZM61.069 16.7668C61.069 14.7029 59.6639 13.1535 57.804 13.1693C55.982 13.1882 54.5642 14.8008 54.5831 16.8362C54.6052 18.9883 55.9441 20.4463 57.8703 20.4179C59.8375 20.3926 61.069 18.982 61.069 16.7668Z" fill="#303069"/>
<path d="M135.97 16.7565C135.976 21.4648 132.822 24.387 127.807 24.4785C123.172 24.5637 119.553 21.2502 119.702 16.6934C119.847 12.1713 123.049 9.0125 127.792 8.9557C132.184 8.90205 136.343 12.3354 135.97 16.7565ZM124.612 16.7471C124.621 18.9844 125.97 20.6317 127.798 20.6412C129.645 20.6506 131.038 19.0034 131.044 16.807C131.05 14.516 129.762 13.0455 127.773 13.0707C125.85 13.0991 124.602 14.5476 124.612 16.7471Z" fill="#303069"/>
<path d="M102.847 8.97852C107.432 8.98167 111.057 11.9859 111.035 16.7825C111.013 21.415 107.846 24.3719 102.945 24.4824C97.7793 24.5991 94.729 20.8944 94.7227 16.7415C94.7163 12.3046 98.1803 8.98483 102.847 8.97852ZM99.7529 16.7036C99.7308 19.1493 100.864 20.604 102.816 20.6356C104.77 20.6672 106.176 19.023 106.169 16.7131C106.166 14.6082 104.811 13.0967 102.914 13.0841C100.89 13.0651 99.775 14.3432 99.7529 16.7036Z" fill="#303069"/>
<path d="M7.80859 19.312C7.92859 17.4059 7.62545 15.3011 8.53802 13.2089C10.3221 9.11596 15.9333 7.81267 19.1289 10.1416C21.393 11.792 22.4634 13.799 22.5361 16.4498C22.5992 18.7471 22.5361 21.0444 22.5771 23.3418C22.5897 24.1244 22.3592 24.4242 21.5193 24.4715C17.7995 24.6829 17.8058 24.7113 17.7995 20.9813C17.7964 19.4666 17.8469 17.9487 17.7237 16.4434C17.5816 14.7331 16.6596 13.9789 15.046 14.023C13.4798 14.0672 12.602 14.9129 12.5514 16.6328C12.4883 18.8228 12.4946 21.0192 12.5514 23.2124C12.5767 24.1622 12.2736 24.4589 11.3042 24.4778C7.80859 24.5472 7.80859 24.5819 7.80859 21.0823C7.80859 20.5648 7.80859 20.0409 7.80859 19.312Z" fill="#303069"/>
<path d="M32.3585 8.96785C33.9026 8.94892 35.5352 9.26449 37.1266 9.8546C37.8529 10.1228 38.0297 10.4857 37.5877 11.1295C37.4708 11.2999 37.3193 11.4766 37.2751 11.6691C36.8898 13.37 36.0499 13.8213 34.3952 12.9945C33.4195 12.5085 32.2354 12.6632 31.1334 12.7578C30.4766 12.8146 29.8134 13.0103 29.7534 13.7771C29.6903 14.5787 30.4387 14.566 30.9692 14.7143C32.4312 15.1214 33.9721 15.1246 35.412 15.6958C37.6319 16.5794 38.3676 17.4724 38.3645 19.5867C38.3613 21.7168 37.3824 23.1716 35.3268 23.8437C32.1249 24.8914 28.904 24.5443 25.7084 23.7554C24.7896 23.5282 24.4043 22.9633 24.9506 22.004C25.178 21.6032 25.2758 21.1235 25.4053 20.6723C25.6453 19.836 26.1095 19.6498 26.9273 19.9875C28.4493 20.6186 30.0755 20.7733 31.7049 20.7385C32.3143 20.7259 33.1101 20.6502 33.2332 19.9023C33.369 19.085 32.5543 18.9146 31.9828 18.7662C30.5144 18.3844 29.0272 18.0815 27.5431 17.7659C26.1095 17.4629 25.2222 16.6646 24.9695 15.1814C24.7043 13.6319 24.6948 12.1488 25.9547 10.9812C27.7104 9.34653 29.8798 8.89212 32.3585 8.96785Z" fill="#303069"/>
<path d="M40.0602 13.5622C40.0602 11.6309 40.095 9.69646 40.0444 7.76834C40.0192 6.8311 40.316 6.42087 41.298 6.49976C42.078 6.56287 42.8737 6.55972 43.6568 6.50291C44.582 6.43349 45.0715 6.71434 44.9199 7.71785C44.7683 8.72767 45.302 8.95488 46.2114 8.9391C46.8461 8.92963 47.8376 8.55095 48.065 9.25467C48.4092 10.3213 48.3965 11.5615 48.0618 12.6439C47.885 13.2119 47.0071 12.9594 46.4735 12.8995C45.2009 12.7575 44.8031 13.2655 44.8946 14.4868C44.9894 15.7869 44.8946 17.0965 44.9294 18.3998C44.9736 20.0218 45.5514 20.5015 47.1777 20.4447C49.1133 20.3753 48.5702 22.1582 49.0438 23.1144C49.5743 24.1873 48.4502 24.0611 47.885 24.2221C46.104 24.7238 44.2915 24.5566 42.6337 23.8907C40.9096 23.1996 40.3634 21.5271 40.1581 19.8199C40.035 18.788 40.0918 17.734 40.0823 16.6926C40.0729 15.6481 40.0792 14.6035 40.0792 13.559C40.0729 13.5622 40.0665 13.5622 40.0602 13.5622Z" fill="#303069"/>
<path d="M117.785 17.8187C117.785 20.3275 117.845 22.8362 117.769 25.345C117.684 28.1157 116.225 29.8829 113.863 30.555C112.667 30.8958 111.994 30.5109 111.757 29.419C111.587 28.6269 110.317 27.7212 111.268 27.109C112.976 26.0014 112.935 24.4204 112.957 22.8362C113.017 18.7591 113.033 14.682 112.951 10.608C112.925 9.30469 113.298 8.91339 114.615 8.93863C117.814 8.99859 117.814 8.93548 117.814 12.1764C117.814 14.0571 117.814 15.9379 117.814 17.8219C117.804 17.8187 117.795 17.8187 117.785 17.8187Z" fill="#303069"/>
<path d="M5.45651 10.7267C5.46914 14.9553 5.45967 19.1839 5.51335 23.4126C5.52598 24.4161 5.08074 24.8515 4.17449 24.9715C3.81135 25.0188 3.44506 25.044 3.07877 25.0504C0.312634 25.0977 -0.00313449 24.8011 2.31958e-05 22.1029C0.00633857 18.2909 0.0284424 14.4788 0.0410731 10.6699C1.84096 11.118 3.64715 11.219 5.45651 10.7267Z" fill="#303069"/>
<path d="M5.37904 2.87231C5.32851 4.52904 4.4412 5.43787 2.86552 5.44419C1.3593 5.44734 0.187797 4.24818 0.219374 2.73977C0.247793 1.35127 1.61823 -0.0340735 2.92551 0.000639006C4.3149 0.0385072 5.4264 1.33865 5.37904 2.87231Z" fill="#D95C37"/>
<path d="M5.45645 10.7278C3.6471 11.2201 1.8409 11.1191 0.0410156 10.671C0.454673 8.55983 2.14719 9.0458 3.5271 9.02371C4.60703 9.00793 5.51013 9.3803 5.45645 10.7278Z" fill="#D95C37"/>
</svg>
