<svg width="74" height="22" viewBox="0 0 74 22" fill="none" xmlns="http://www.w3.org/2000/svg">
<path d="M30.97 6.98145C26.9474 6.98145 23.6836 10.2149 23.6836 14.1807C23.6836 18.1466 26.9562 21.38 30.97 21.38C34.9838 21.38 38.2563 18.1466 38.2563 14.1807C38.2563 10.2149 34.9926 6.98145 30.97 6.98145ZM30.97 17.9729C28.8576 17.9729 27.1378 16.2737 27.1378 14.1865C27.1378 12.0994 28.8576 10.4002 30.97 10.4002C33.0823 10.4002 34.8021 12.0994 34.8021 14.1865C34.8021 16.2737 33.0823 17.9729 30.97 17.9729Z" fill="black"/>
<path d="M55.211 4.48979C56.465 4.48979 57.4845 3.48531 57.4845 2.24345C57.4845 1.00159 56.465 0 55.211 0C53.9571 0 52.9375 1.00449 52.9375 2.24634C52.9375 3.4882 53.9571 4.48979 55.211 4.48979Z" fill="black"/>
<path d="M16.1021 6.98995C15.9117 6.97548 15.73 6.9668 15.5425 6.9668C13.7846 6.9668 12.1176 7.67891 10.9222 8.93524C9.72689 7.6847 8.0657 6.9668 6.32541 6.9668C2.83896 6.96969 0 9.76604 0 13.2108V21.0904H3.40734V13.3063C3.40734 11.8763 4.59684 10.5592 5.99727 10.4174C6.09689 10.4087 6.19357 10.4029 6.28439 10.4029C7.86062 10.4029 9.14679 11.6737 9.15558 13.2311V21.0875H12.6391V13.2919C12.6391 11.8705 13.8198 10.5534 15.229 10.4116C15.3286 10.4029 15.4253 10.3971 15.5161 10.3971C17.0924 10.3971 18.3873 11.6621 18.3932 13.2108V21.0904H21.8767V13.3063C21.8767 11.7287 21.2849 10.206 20.2185 9.03366C19.1549 7.8526 17.693 7.12601 16.1021 6.98995Z" fill="black"/>
<path d="M43.63 0.333984H40.1465V21.1011H43.63V0.333984ZM50.2982 0.333984H46.8147V21.1011H50.2982V0.333984ZM56.9635 7.32486H53.4799V21.0953H56.9635V7.32486Z" fill="black"/>
<path d="M73.2442 13.8592C73.2442 12.0326 72.5234 10.3132 71.2226 9.00182C69.913 7.69338 68.1844 6.9668 66.3445 6.9668H66.2537C64.3464 6.98996 62.5417 7.73681 61.194 9.07709C59.8463 10.4174 59.0874 12.189 59.0669 14.0821C59.0435 16.013 59.7935 17.8396 61.1793 19.2233C62.5651 20.607 64.3992 21.3712 66.3533 21.3712H66.3621C68.9227 21.3712 71.3222 20.0164 72.6348 17.8396L72.8018 17.5617L69.9247 16.1635L69.7812 16.3951C69.0546 17.5703 67.8065 18.2651 66.4207 18.2651C64.6482 18.2651 63.1188 17.0985 62.6471 15.4369H73.2442V13.8592ZM66.2068 10.0932C67.7977 10.0932 69.2216 11.1266 69.7226 12.5913H62.6999C63.1921 11.1266 64.616 10.0932 66.2068 10.0932Z" fill="black"/>
</svg>
