<svg width="116" height="29" viewBox="0 0 116 29" fill="none" xmlns="http://www.w3.org/2000/svg">
<path d="M43.2472 6.31836H36.8506C36.6388 6.31823 36.434 6.39301 36.273 6.52924C36.112 6.66548 36.0053 6.85419 35.9724 7.06139L33.3853 23.309C33.3734 23.3844 33.3781 23.4614 33.3992 23.5348C33.4203 23.6082 33.4571 23.6763 33.5073 23.7342C33.5574 23.7921 33.6196 23.8386 33.6896 23.8705C33.7596 23.9023 33.8358 23.9187 33.9128 23.9186H36.9666C37.1785 23.9187 37.3834 23.8438 37.5445 23.7074C37.7055 23.571 37.812 23.382 37.8448 23.1747L38.5426 18.7924C38.5753 18.5852 38.6817 18.3964 38.8426 18.26C39.0034 18.1236 39.2082 18.0486 39.4199 18.0485H41.4448C45.6584 18.0485 48.0902 16.0287 48.7252 12.0264C49.0115 10.2753 48.7374 8.89952 47.9097 7.93599C47.0005 6.87795 45.3881 6.31836 43.2472 6.31836ZM43.9851 12.2524C43.6353 14.526 41.8816 14.526 40.1859 14.526H39.2207L39.8978 10.28C39.9177 10.1557 39.9816 10.0426 40.0781 9.96091C40.1746 9.87922 40.2974 9.83433 40.4244 9.83433H40.8668C42.0219 9.83433 43.1115 9.83433 43.6746 10.4866C44.0104 10.8757 44.1133 11.4538 43.9851 12.2524ZM62.3676 12.1792H59.3045C59.1775 12.1792 59.0547 12.2241 58.9582 12.3058C58.8617 12.3875 58.7977 12.5007 58.7779 12.6249L58.6423 13.4735L58.4281 13.1659C57.765 12.2126 56.2863 11.8939 54.8103 11.8939C51.4255 11.8939 48.5344 14.4334 47.9714 17.9957C47.6786 19.7726 48.0948 21.4718 49.1125 22.6567C50.0459 23.7463 51.3815 24.2003 52.9706 24.2003C55.698 24.2003 57.2103 22.4631 57.2103 22.4631L57.0738 23.3062C57.0616 23.3816 57.0661 23.4587 57.0869 23.5322C57.1077 23.6057 57.1444 23.6738 57.1943 23.732C57.2443 23.7901 57.3064 23.8368 57.3763 23.8688C57.4462 23.9009 57.5224 23.9176 57.5994 23.9177H60.3586C60.5705 23.9178 60.7754 23.8429 60.9365 23.7064C61.0975 23.57 61.204 23.3811 61.2368 23.1737L62.8923 12.7889C62.9045 12.7137 62.9001 12.6367 62.8793 12.5634C62.8585 12.49 62.8219 12.422 62.772 12.3641C62.7222 12.3061 62.6602 12.2596 62.5903 12.2276C62.5205 12.1957 62.4445 12.1792 62.3676 12.1792ZM58.0979 18.0846C57.8024 19.818 56.4135 20.9817 54.642 20.9817C53.7525 20.9817 53.0417 20.6991 52.5853 20.1636C52.1326 19.6318 51.9605 18.8749 52.1045 18.0318C52.3804 16.3132 53.7927 15.1115 55.5371 15.1115C56.4069 15.1115 57.114 15.3978 57.5798 15.938C58.0465 16.4836 58.2317 17.2452 58.0979 18.0846ZM78.6812 12.1792H75.6031C75.458 12.1795 75.315 12.2148 75.1868 12.2821C75.0585 12.3494 74.9487 12.4467 74.867 12.5656L70.6217 18.76L68.8222 12.8074C68.7669 12.6258 68.6541 12.4667 68.5005 12.3536C68.3469 12.2405 68.1606 12.1793 67.9692 12.1792H64.9444C64.8595 12.179 64.7757 12.1989 64.7002 12.2372C64.6246 12.2755 64.5593 12.3311 64.5098 12.3995C64.4603 12.4678 64.428 12.5469 64.4156 12.6301C64.4032 12.7133 64.411 12.7982 64.4384 12.8778L67.8289 22.7336L64.6413 27.1909C64.5847 27.2699 64.5511 27.3629 64.5442 27.4596C64.5374 27.5563 64.5575 27.653 64.6024 27.7391C64.6473 27.8252 64.7153 27.8974 64.7989 27.9478C64.8824 27.9982 64.9784 28.0248 65.0763 28.0247H68.1506C68.2941 28.0249 68.4356 27.9907 68.5628 27.9248C68.69 27.859 68.7993 27.7636 68.8811 27.6467L79.1189 13.0084C79.1744 12.9292 79.207 12.8365 79.2131 12.7403C79.2191 12.6441 79.1985 12.5481 79.1534 12.4626C79.1083 12.3772 79.0405 12.3056 78.9572 12.2557C78.874 12.2057 78.7785 12.1793 78.6812 12.1792Z" fill="#253B80"/>
<path d="M88.899 6.31928H82.4918C82.2799 6.31937 82.075 6.39416 81.9139 6.53018C81.7528 6.66621 81.6462 6.85454 81.6132 7.0613L79.0222 23.2867C79.0101 23.3619 79.0147 23.4388 79.0356 23.512C79.0566 23.5852 79.0933 23.6531 79.1433 23.711C79.1934 23.7689 79.2555 23.8153 79.3255 23.8472C79.3954 23.879 79.4716 23.8955 79.5486 23.8955H82.8365C82.9849 23.8953 83.1283 23.8428 83.2409 23.7475C83.3535 23.6522 83.4281 23.5203 83.451 23.3756L84.1864 18.7763C84.2192 18.5694 84.3257 18.3809 84.4868 18.2446C84.6479 18.1084 84.853 18.0335 85.065 18.0334H87.0921C91.313 18.0334 93.7475 16.0164 94.3845 12.0195C94.6721 10.2709 94.3957 8.89692 93.5667 7.9347C92.6572 6.87811 91.0432 6.31928 88.899 6.31928ZM89.6381 12.2453C89.2887 14.5157 87.5323 14.5157 85.8331 14.5157H84.8674L85.5465 10.2755C85.566 10.1514 85.6297 10.0384 85.7263 9.95673C85.8229 9.8751 85.9458 9.83031 86.0729 9.83046H86.516C87.6719 9.83046 88.7641 9.83046 89.328 10.4818C89.6643 10.8704 89.7664 11.4477 89.6381 12.2453ZM108.048 12.1722H104.982C104.855 12.1718 104.731 12.2166 104.635 12.2982C104.538 12.3799 104.475 12.4931 104.455 12.6172L104.319 13.4647L104.104 13.1575C103.44 12.2055 101.96 11.8872 100.482 11.8872C97.0916 11.8872 94.1972 14.4232 93.6332 17.9807C93.341 19.7552 93.756 21.4521 94.7751 22.6354C95.7118 23.7234 97.0476 24.1768 98.6391 24.1768C101.371 24.1768 102.885 22.442 102.885 22.442L102.749 23.284C102.736 23.3594 102.741 23.4366 102.762 23.5101C102.783 23.5836 102.82 23.6518 102.87 23.7098C102.92 23.7679 102.983 23.8145 103.053 23.8464C103.123 23.8783 103.2 23.8948 103.277 23.8946H106.039C106.251 23.8945 106.456 23.8196 106.617 23.6834C106.779 23.5471 106.885 23.3586 106.918 23.1517L108.577 12.781C108.589 12.7056 108.584 12.6287 108.563 12.5554C108.541 12.482 108.504 12.4141 108.454 12.3563C108.404 12.2985 108.341 12.2521 108.271 12.2203C108.201 12.1885 108.125 12.1721 108.048 12.1722ZM103.771 18.0695C103.477 19.8005 102.084 20.9626 100.31 20.9626C99.4213 20.9626 98.7075 20.6804 98.2504 20.1457C97.797 19.6146 97.6265 18.8587 97.7689 18.0167C98.0471 16.3005 99.4597 15.1005 101.207 15.1005C102.078 15.1005 102.786 15.3864 103.252 15.9258C103.722 16.4707 103.907 17.2312 103.771 18.0695ZM111.664 6.76431L109.035 23.2867C109.023 23.3619 109.027 23.4388 109.048 23.512C109.069 23.5852 109.106 23.6531 109.156 23.711C109.206 23.7689 109.268 23.8153 109.338 23.8472C109.408 23.879 109.484 23.8955 109.561 23.8955H112.205C112.644 23.8955 113.017 23.581 113.084 23.1526L115.677 6.92807C115.689 6.85287 115.685 6.77598 115.664 6.70269C115.643 6.6294 115.606 6.56146 115.556 6.50352C115.506 6.44559 115.444 6.39904 115.374 6.36708C115.304 6.33511 115.228 6.31849 115.151 6.31836H112.191C112.064 6.3188 111.941 6.36392 111.844 6.44564C111.748 6.52736 111.684 6.64033 111.664 6.76431Z" fill="#179BD7"/>
<path d="M6.79456 27.0359L7.28263 23.9599L6.19543 23.9349H1.00391L4.61175 1.23645C4.62249 1.16709 4.65799 1.10388 4.71178 1.05832C4.76557 1.01277 4.83406 0.987915 4.90478 0.988285H13.6584C16.5645 0.988285 18.57 1.58832 19.6171 2.77264C20.1079 3.32822 20.4206 3.90881 20.5717 4.54773C20.7304 5.21814 20.7332 6.0191 20.5783 6.99601L20.5671 7.06731V7.69327L21.0579 7.96921C21.4327 8.15759 21.7695 8.41241 22.0518 8.7211C22.4718 9.19612 22.7433 9.79986 22.8581 10.5156C22.9767 11.2518 22.9375 12.1278 22.7433 13.1195C22.5194 14.2603 22.1573 15.2538 21.6683 16.0669C21.2368 16.7952 20.6567 17.426 19.9651 17.9188C19.3156 18.3762 18.5438 18.7235 17.6713 18.9457C16.8258 19.1642 15.8618 19.2744 14.8044 19.2744H14.1232C13.636 19.2744 13.1629 19.4485 12.7915 19.7606C12.4206 20.076 12.1745 20.5117 12.0971 20.9903L12.0458 21.2671L11.1835 26.6887L11.1443 26.8878C11.134 26.9508 11.1163 26.9822 11.0902 27.0035C11.0649 27.0241 11.0333 27.0355 11.0006 27.0359H6.79456Z" fill="#253B80"/>
<path d="M21.5433 7.10156C21.5171 7.2679 21.4872 7.43795 21.4535 7.61264C20.2965 13.5142 16.338 15.5529 11.2824 15.5529H8.70827C8.09 15.5529 7.569 15.999 7.47266 16.6048L6.15473 24.9085L5.78153 27.2622C5.76666 27.3556 5.77233 27.451 5.79816 27.542C5.82399 27.633 5.86936 27.7173 5.93114 27.7892C5.99292 27.8611 6.06965 27.9188 6.15605 27.9584C6.24244 27.998 6.33645 28.0186 6.4316 28.0186H10.9971C11.5377 28.0186 11.997 27.6283 12.0821 27.0987L12.127 26.8682L12.9866 21.4489L13.0418 21.1516C13.126 20.6201 13.5862 20.2298 14.1268 20.2298H14.8096C19.233 20.2298 22.6957 18.4457 23.7077 13.2828C24.1305 11.1261 23.9116 9.32522 22.7929 8.05867C22.4384 7.66687 22.0149 7.34254 21.5433 7.10156Z" fill="#179BD7"/>
<path d="M20.3058 6.62928C19.9369 6.52246 19.5616 6.43909 19.1822 6.37967C18.4326 6.26435 17.6749 6.20902 16.9165 6.2142H10.05C9.78872 6.214 9.53595 6.30738 9.33742 6.47746C9.1389 6.64755 9.00771 6.88311 8.96758 7.14157L7.50687 16.4022L7.46484 16.6724C7.51035 16.3776 7.65976 16.1088 7.88606 15.9147C8.11235 15.7206 8.40058 15.614 8.6986 15.6141H11.2688C16.3169 15.6141 20.2694 13.5621 21.4247 7.62583C21.4592 7.45008 21.4882 7.279 21.5143 7.11166C21.2095 6.95164 20.8917 6.81749 20.5645 6.71061C20.4787 6.68211 20.3925 6.655 20.3058 6.62928Z" fill="#222D65"/>
<path d="M8.96629 7.16307C9.00603 6.90577 9.13696 6.67122 9.33531 6.50203C9.53365 6.33284 9.78625 6.24024 10.0472 6.24105H16.904C17.7163 6.24105 18.4745 6.29408 19.1665 6.40573C19.6348 6.47915 20.0966 6.58896 20.5478 6.73416C20.8882 6.84674 21.2044 6.97978 21.4963 7.1333C21.8395 4.94967 21.4935 3.46291 20.31 2.11664C19.0052 0.634526 16.6503 0 13.6369 0H4.8888C4.27326 0 3.74819 0.446587 3.65306 1.05413L0.00924217 24.0952C-0.00773011 24.2022 -0.00127274 24.3116 0.0281701 24.4158C0.0576129 24.5201 0.109342 24.6167 0.1798 24.6991C0.250258 24.7815 0.337772 24.8477 0.436323 24.8932C0.534873 24.9386 0.642121 24.9622 0.750689 24.9623H6.15159L7.50765 16.3795L8.96629 7.16307Z" fill="#253B80"/>
</svg>
