<svg width="137" height="25" viewBox="0 0 137 25" fill="none" xmlns="http://www.w3.org/2000/svg">
<path d="M33.9103 17.2624C33.9103 19.1426 33.9103 20.9126 33.9103 22.6783C33.9103 23.4621 33.6975 23.669 32.8904 23.669C32.1898 23.669 31.4935 23.6778 30.7929 23.6646C30.2297 23.6558 29.9991 23.4312 29.9548 22.8721C29.9459 22.7444 29.9503 22.6167 29.9503 22.489C29.9503 17.1964 29.9503 11.9038 29.9503 6.60682C29.9503 5.5985 30.1321 5.41797 31.1299 5.41797C31.662 5.41797 32.1942 5.41797 32.7308 5.41797C33.631 5.41797 33.733 5.49723 33.9414 6.38226C34.6775 5.7306 35.5068 5.28588 36.4779 5.14498C39.4801 4.71787 42.225 6.39988 43.2006 9.25311C44.1762 12.1152 43.4534 15.2414 41.3248 17.0159C39.4801 18.5526 37.3826 18.8388 35.1254 18.0462C34.6952 17.9009 34.3272 17.6279 33.9103 17.2624ZM33.8926 11.8157C33.9015 13.511 35.1653 14.8143 36.7972 14.8143C38.4069 14.8099 39.6575 13.4757 39.6486 11.7629C39.6397 10.0897 38.3626 8.76877 36.775 8.78638C35.1387 8.8084 33.8837 10.1249 33.8926 11.8157Z" fill="#091C32"/>
<path d="M61.2022 5.42641C61.5702 5.42641 61.9383 5.42641 62.3064 5.42641C63.0913 5.43081 63.2687 5.5541 63.4815 6.29383C64.1112 8.46458 64.7365 10.6353 65.3618 12.8061C65.4416 13.0879 65.517 13.3697 65.5968 13.6471C65.65 13.8276 65.6988 13.9773 65.9515 13.9817C66.2087 13.9817 66.2442 13.8276 66.293 13.6427C66.7143 12.0752 67.14 10.512 67.5657 8.94892C67.8096 8.05068 68.0446 7.15244 68.2974 6.2586C68.4836 5.59813 68.7054 5.43521 69.4016 5.42641C70.2486 5.4176 71.0956 5.40879 71.9426 5.43081C72.6255 5.44842 72.8738 5.77866 72.6698 6.43913C71.2064 11.1725 69.7829 15.9191 68.2397 20.6305C67.3706 23.2768 64.8207 24.5493 62.0802 23.9372C61.1711 23.7347 60.3197 23.4353 59.6013 22.8232C59.18 22.4622 59.118 22.0659 59.4018 21.6168C59.7166 21.1236 60.0403 20.6393 60.3907 20.1681C60.6833 19.7719 61.1002 19.741 61.619 20.036C61.9516 20.2254 62.262 20.4543 62.6434 20.5512C63.3263 20.7273 63.9959 20.472 64.3507 19.8731C64.4083 19.7807 64.4527 19.6794 64.4837 19.5737C64.6301 19.1246 65.0336 18.5918 64.8473 18.2572C64.67 17.9401 64.0048 18.1427 63.5569 18.1559C62.8784 18.1779 62.6833 17.7288 62.5148 17.2268C61.5126 14.1843 60.5104 11.1373 59.5082 8.09031C59.3486 7.60596 59.1889 7.12162 59.0337 6.63287C58.7632 5.77426 59.0071 5.44402 59.9206 5.42641C60.3552 5.422 60.7765 5.42641 61.2022 5.42641Z" fill="#091C32"/>
<path d="M54.1755 6.33978C54.3795 5.50758 54.4904 5.42392 55.3862 5.42392C55.976 5.42392 56.5613 5.41952 57.1511 5.42392C57.9316 5.42832 58.171 5.65729 58.171 6.43664C58.1755 8.68225 58.171 10.9279 58.171 13.1691C58.171 14.4812 58.1755 15.7977 58.171 17.1099C58.171 17.9333 57.9626 18.1314 57.1201 18.1358C56.4771 18.1402 55.8341 18.1402 55.1911 18.1358C54.4682 18.1314 54.3042 17.9773 54.1933 17.1891C53.4793 17.8584 52.6678 18.2679 51.7277 18.4132C49.1646 18.8051 46.8409 17.7043 45.475 15.4455C43.6081 12.3633 44.4019 8.23313 47.2533 6.18567C49.1158 4.85151 51.7144 4.6886 53.4749 5.80699C53.7232 5.96551 53.9405 6.15925 54.1755 6.33978ZM54.2332 11.7689C54.2243 10.1133 52.9472 8.77472 51.3685 8.77031C49.7721 8.76591 48.4728 10.1265 48.4772 11.8041C48.4816 13.4993 49.7499 14.8246 51.3729 14.8158C52.9738 14.807 54.2421 13.4597 54.2332 11.7689Z" fill="#091C32"/>
<path d="M104.939 17.2531C102.779 19.2169 99.2979 18.6489 97.4133 16.8833C94.1317 13.8187 94.6594 8.10781 98.5263 5.89302C100.393 4.82306 102.353 4.69977 104.282 5.83138C104.513 5.96788 104.712 6.16161 104.979 6.36856C105.023 6.04713 105.058 5.73451 105.333 5.55398C105.595 5.38226 105.901 5.42629 106.189 5.42629C106.797 5.42189 107.404 5.41748 108.012 5.42629C108.69 5.43509 108.947 5.67727 108.952 6.35535C108.961 9.97034 108.961 13.5853 108.952 17.2047C108.952 17.896 108.712 18.1294 108.025 18.1382C107.364 18.147 106.699 18.1426 106.038 18.1382C105.249 18.1382 105.094 18.0061 104.939 17.2531ZM105.01 11.8064C105.018 10.1465 103.75 8.79029 102.18 8.78589C100.54 8.78149 99.2669 10.0716 99.2491 11.7668C99.2314 13.484 100.5 14.8138 102.163 14.8138C103.728 14.8182 105.001 13.4708 105.01 11.8064Z" fill="#091C32"/>
<path d="M123.893 9.07489C123.893 6.42859 123.893 3.7779 123.893 1.13161C123.893 0.189335 124.084 0 125.011 0C125.618 0 126.226 0 126.833 0C127.667 0 127.853 0.189335 127.853 1.03914C127.853 3.76029 127.849 6.48143 127.862 9.20258C127.862 9.38751 127.702 9.68252 127.999 9.75737C128.283 9.83223 128.54 9.77939 128.749 9.47117C129.503 8.37038 130.319 7.30922 131.064 6.20403C131.427 5.66245 131.849 5.39826 132.523 5.44669C133.254 5.49953 133.995 5.4555 134.731 5.4599C135.002 5.4599 135.316 5.41147 135.467 5.71088C135.631 6.03671 135.529 6.35374 135.321 6.63114C134.594 7.59543 133.857 8.55091 133.126 9.5108C132.802 9.9335 132.5 10.3694 132.155 10.7701C131.942 11.0123 131.968 11.1752 132.141 11.4262C133.361 13.183 134.567 14.9487 135.778 16.7099C135.871 16.8464 135.968 16.9785 136.035 17.1282C136.274 17.6434 136.008 18.1145 135.432 18.1278C134.456 18.1542 133.48 18.1366 132.509 18.1322C132.084 18.1322 131.8 17.9032 131.574 17.5553C130.669 16.1595 129.755 14.7726 128.838 13.3856C128.749 13.2535 128.696 13.0862 128.523 13.0289C128.088 12.8792 127.862 13.0421 127.862 13.5177C127.862 14.7417 127.866 15.9658 127.862 17.1855C127.862 17.912 127.654 18.1234 126.909 18.1322C126.248 18.141 125.583 18.1366 124.922 18.1322C124.128 18.1278 123.906 17.912 123.906 17.1194C123.889 14.4423 123.893 11.7608 123.893 9.07489Z" fill="#091C32"/>
<path d="M78.9086 5.10088C80.4208 5.1185 81.7999 5.57202 83.0549 6.3866C83.9862 6.98983 84.0438 7.45657 83.3166 8.27555C83.1214 8.49571 82.9263 8.71146 82.7312 8.93162C82.2079 9.51724 81.8798 9.58329 81.1969 9.19581C80.4962 8.79512 79.8044 8.37682 78.984 8.26675C78.5805 8.2095 78.1814 8.16988 77.7823 8.30197C77.432 8.42086 77.0373 8.52213 77.024 8.97565C77.0107 9.44679 77.4009 9.61411 77.7734 9.72859C78.1237 9.83427 78.4874 9.89591 78.8466 9.97076C79.9596 10.1997 81.0949 10.345 82.1237 10.869C83.4185 11.5339 84.1768 12.5642 84.2168 14.0349C84.2522 15.4527 83.6802 16.6195 82.4696 17.368C79.8842 18.962 77.2147 18.8255 74.5407 17.5706C73.9952 17.3152 73.4675 17.0114 73.0773 16.527C72.5717 15.8974 72.6205 15.3866 73.2547 14.8847C73.6005 14.6117 73.9597 14.3607 74.3056 14.0833C74.7092 13.7575 75.1083 13.7751 75.5162 14.0613C75.8754 14.3123 76.2213 14.5853 76.5983 14.8142C77.3743 15.2854 78.2213 15.4747 79.1304 15.347C79.392 15.3118 79.6315 15.2237 79.8399 15.0652C80.3277 14.6953 80.2745 14.167 79.7157 13.9028C78.9441 13.5373 78.0927 13.4669 77.2723 13.2643C76.5983 13.097 75.9065 13.0001 75.2635 12.7139C73.911 12.1063 73.0906 11.098 73.0108 9.6097C72.9309 8.13465 73.5119 6.95901 74.7668 6.12241C76.0262 5.27261 77.4364 5.07446 78.9086 5.10088Z" fill="#091C32"/>
<path d="M116.804 18.5011C111.323 18.3867 108.436 12.5921 111.172 8.18897C113.624 4.23935 119.731 4.01479 122.44 7.76186C122.901 8.39592 122.839 8.81422 122.21 9.29416C121.771 9.6288 121.336 9.96344 120.893 10.2893C120.387 10.6591 120.103 10.6371 119.633 10.2056C119.336 9.93262 119.066 9.6332 118.746 9.38663C117.017 8.05688 114.529 9.04758 114.179 11.2007C113.815 13.4595 115.62 15.2208 117.762 14.6968C118.378 14.5471 118.839 14.1596 119.256 13.7193C120.085 12.8431 120.294 12.8211 121.269 13.5652C121.633 13.8426 122.01 14.1068 122.356 14.4106C122.853 14.8465 122.884 15.2076 122.502 15.7448C121.119 17.6645 119.181 18.4747 116.804 18.5011Z" fill="#091C32"/>
<path d="M86.8682 11.9469C86.8682 11.0354 86.8549 10.1196 86.877 9.20814C86.8859 8.8691 86.7839 8.75022 86.4425 8.78104C86.1498 8.80746 85.8527 8.78985 85.56 8.78544C84.9968 8.77664 84.7396 8.57409 84.7086 8.01929C84.6731 7.42047 84.6775 6.81283 84.7086 6.214C84.7352 5.70324 85.019 5.42584 85.5644 5.42144C85.9813 5.41704 86.5311 5.60637 86.7839 5.33778C87.0544 5.04717 86.8549 4.50118 86.8682 4.06967C86.8859 3.52368 86.8637 2.97329 86.877 2.4273C86.8903 1.8637 87.1254 1.61272 87.6708 1.59951C88.4779 1.58189 89.2894 1.5863 90.0965 1.59951C90.6065 1.60831 90.8681 1.88131 90.8637 2.39648C90.8592 3.2727 90.8814 4.14893 90.8548 5.02516C90.8459 5.37741 90.9612 5.44786 91.2894 5.43905C92.1718 5.41704 93.0543 5.42144 93.9368 5.43465C94.6685 5.44345 94.9168 5.70324 94.9301 6.43857C94.939 6.9141 94.939 7.38965 94.9301 7.86078C94.9124 8.52566 94.6463 8.78985 93.99 8.79425C93.0898 8.80305 92.1896 8.80746 91.2894 8.78985C90.9701 8.78104 90.8326 8.83828 90.8415 9.19934C90.8637 10.5863 90.8326 11.9733 90.8548 13.3603C90.8725 14.5844 91.5954 15.0071 92.7306 14.4919C92.8991 14.4171 93.0587 14.329 93.2272 14.2542C93.6175 14.0824 93.9545 14.1617 94.1895 14.5139C94.5266 15.0159 94.8503 15.5223 95.1474 16.0462C95.3957 16.4777 95.2361 16.8564 94.8902 17.169C93.6352 18.2962 92.1098 18.5604 90.5222 18.3579C88.1364 18.0541 86.9081 16.5878 86.877 14.2013C86.8637 13.444 86.8682 12.6954 86.8682 11.9469Z" fill="#091C32"/>
<path d="M10.7807 12.2989C7.70758 12.2989 4.63446 12.2989 1.56135 12.2989C0.381771 12.2989 0.0137074 11.929 0.0137074 10.7622C0.0137074 10.269 0.0048384 9.77585 0.0137074 9.2827C0.0270109 8.42409 0.452724 7.98817 1.30415 7.98377C7.63219 7.97937 13.9647 7.97937 20.2927 7.98377C21.2284 7.98377 21.6408 8.40207 21.6497 9.32233C21.6541 9.89033 21.6541 10.4539 21.6497 11.0219C21.6408 11.8453 21.1929 12.29 20.3326 12.2945C17.9602 12.3033 15.5877 12.2989 13.2108 12.2989C12.3993 12.2989 11.5878 12.2989 10.7807 12.2989Z" fill="#56C0F1"/>
<path d="M10.2874 6.59619C7.32959 6.59619 4.36734 6.59619 1.40952 6.59619C0.416191 6.59619 0.0215199 6.1955 0.0215199 5.20039C0.0215199 4.63679 0.0126509 4.06878 0.0215199 3.50518C0.0303889 2.80068 0.478274 2.33394 1.17893 2.29431C1.45387 2.2767 1.7288 2.28991 2.00374 2.28991C7.64887 2.28991 13.294 2.28991 18.9347 2.28991C20.1542 2.28991 20.5444 2.68179 20.5488 3.89706C20.5488 4.35499 20.5622 4.80851 20.5444 5.26644C20.5045 6.1911 20.0611 6.59619 19.1076 6.59619C16.1676 6.59619 13.2275 6.59619 10.2874 6.59619Z" fill="#56C0F1"/>
<path d="M10.2899 13.6841C13.2477 13.6841 16.2099 13.6841 19.1677 13.6841C20.0946 13.6841 20.5203 14.0848 20.5469 15.0006C20.5602 15.529 20.5646 16.0574 20.5469 16.5858C20.5158 17.5324 20.0946 17.9772 19.1544 17.9772C13.2166 17.986 7.27884 17.986 1.34547 17.9772C0.440827 17.9772 0.019549 17.5104 0.019549 16.599C0.019549 16.053 0.0151145 15.5026 0.019549 14.9566C0.028418 14.1024 0.449696 13.6797 1.30556 13.6797C4.29885 13.6797 7.29214 13.6841 10.2899 13.6841Z" fill="#56C0F1"/>
<path d="M6.21607 19.3223C7.81249 19.3223 9.41335 19.3179 11.0098 19.3223C12.1228 19.3267 12.5485 19.7406 12.5619 20.8281C12.5663 21.2861 12.5707 21.7396 12.5619 22.1975C12.5352 23.2146 12.0829 23.6506 11.0541 23.6506C8.53532 23.655 6.02095 23.6506 3.50215 23.6506C2.78376 23.6506 2.06981 23.6638 1.35142 23.6462C0.429039 23.6285 0.00776039 23.197 0.00332588 22.2944C-0.00110863 21.7308 -0.00110863 21.1628 0.00332588 20.5992C0.0166294 19.7538 0.446777 19.3267 1.30707 19.3223C2.94784 19.3179 4.57974 19.3223 6.21607 19.3223Z" fill="#56C0F1"/>
</svg>
