<svg width="128" height="27" viewBox="0 0 128 27" fill="none" xmlns="http://www.w3.org/2000/svg">
<path d="M8.1718 6.90046L7.11523 10.7022L13.1628 6.87881L9.20758 21.3054L13.2246 21.3086L19.0675 0" fill="#3395FF"/>
<path d="M1.66368 15.2444L0 21.3094H8.23319L11.6021 8.97159L1.66368 15.2444ZM30.2628 9.90481C30.0616 10.636 29.6738 11.1732 29.0956 11.5161C28.5187 11.8585 27.709 12.0303 26.6638 12.0303H23.3431L24.5091 7.78063H27.8297C28.8735 7.78063 29.5907 7.95115 29.9797 8.29873C30.3688 8.64631 30.4627 9.17751 30.2628 9.91202M33.7009 9.82021C34.1235 8.28561 33.9491 7.10515 33.1763 6.27882C32.4048 5.45906 31.0511 5.0459 29.1191 5.0459H21.7083L17.2472 21.3166H20.8476L22.6455 14.7585H25.0068C25.5368 14.7585 25.954 14.8437 26.2586 15.0077C26.5638 15.1782 26.743 15.4733 26.798 15.8996L27.4406 21.3166H31.2979L30.6727 16.2668C30.5453 15.1388 30.0173 14.4765 29.0895 14.2797C30.2722 13.9453 31.2631 13.3878 32.0614 12.614C32.8541 11.8458 33.4204 10.883 33.7009 9.82677M42.4526 15.493C42.1508 16.5947 41.6879 17.4276 41.062 18.0113C40.4354 18.595 39.6868 18.8835 38.8133 18.8835C37.9238 18.8835 37.3207 18.6015 37.0021 18.031C36.6828 17.4604 36.672 16.6341 36.9685 15.552C37.265 14.4699 37.738 13.6239 38.3887 13.014C39.0394 12.4041 39.8001 12.0992 40.6736 12.0992C41.5457 12.0992 42.1427 12.3943 42.4446 12.9799C42.7532 13.5682 42.7599 14.4096 42.458 15.5048L42.4526 15.493ZM44.0304 9.73495L43.5796 11.381C43.3851 10.7908 43.0074 10.3186 42.4493 9.96449C41.8898 9.61691 41.1975 9.43984 40.3717 9.43984C39.3587 9.43984 38.386 9.69561 37.4535 10.2071C36.5211 10.7187 35.7027 11.4401 35.005 12.3713C34.3073 13.3026 33.7975 14.3584 33.4688 15.5454C33.1468 16.739 33.0797 17.7818 33.2742 18.6868C33.4755 19.5984 33.8981 20.2935 34.5488 20.7788C35.2062 21.2707 36.0448 21.5133 37.0712 21.5133C37.8868 21.5174 38.6931 21.3449 39.4325 21.0084C40.1635 20.686 40.8137 20.2115 41.3377 19.618L40.8681 21.3336H44.3498L47.5289 9.74086H44.0405L44.0304 9.73495ZM60.04 9.73495H49.915L49.2073 12.3189H55.0986L47.3102 18.8966L46.6447 21.3232H57.0963L57.8041 18.7393H51.4915L59.3993 12.0631M68.9521 15.4733C68.6388 16.6144 68.1739 17.4722 67.5601 18.031C66.9463 18.595 66.203 18.877 65.3302 18.877C63.5055 18.877 62.9058 17.7424 63.5283 15.4733C63.8369 14.3453 64.3038 13.4973 64.9277 12.9261C65.5516 12.353 66.3076 12.067 67.1965 12.067C68.0686 12.067 68.6576 12.351 68.9608 12.9229C69.264 13.4934 69.2613 14.344 68.9521 15.472M70.9901 10.1711C70.1884 9.68315 69.1654 9.43918 67.9176 9.43918C66.6544 9.43918 65.4852 9.68183 64.4092 10.1671C63.3376 10.6494 62.3959 11.3693 61.6587 12.2697C60.9007 13.1812 60.3553 14.2502 60.0205 15.47C59.6918 16.6853 59.6516 17.7523 59.9065 18.6658C60.1614 19.5774 60.6981 20.2791 61.5031 20.7644C62.3148 21.2536 63.3479 21.4969 64.6158 21.4969C65.8635 21.4969 67.0241 21.2517 68.0907 20.7637C69.1573 20.2732 70.0697 19.5767 70.8277 18.6586C71.5858 17.7444 72.1292 16.678 72.4646 15.4582C72.8 14.2384 72.8402 13.1734 72.5853 12.2579C72.3304 11.3463 71.8004 10.6446 71.0021 10.156M83.4194 12.8317L84.3116 9.67724C84.0097 9.52641 83.6139 9.44771 83.1175 9.44771C82.3192 9.44771 81.5544 9.64052 80.8165 10.0314C80.1819 10.3632 79.6425 10.8315 79.1864 11.4178L79.6492 9.71921L78.6383 9.72315H76.1562L72.9563 21.3113H76.4869L78.1472 15.2536C78.3887 14.3729 78.8234 13.6797 79.4507 13.1878C80.0746 12.694 80.8527 12.4467 81.7919 12.4467C82.3688 12.4467 82.9055 12.5759 83.4153 12.8337M93.2431 15.5291C92.9412 16.6111 92.4851 17.4375 91.8612 18.008C91.2373 18.5812 90.486 18.8671 89.6139 18.8671C88.7418 18.8671 88.1447 18.5786 87.8294 18.0015C87.5074 17.4211 87.5007 16.5849 87.8026 15.4858C88.1045 14.3873 88.5674 13.5446 89.2047 12.9609C89.842 12.3726 90.5933 12.0788 91.4654 12.0788C92.3241 12.0788 92.901 12.3805 93.2096 12.9904C93.5181 13.6003 93.5249 14.4463 93.2283 15.5284M95.697 10.1901C95.043 9.67855 94.2078 9.42279 93.1948 9.42279C92.3073 9.42279 91.4614 9.61953 90.659 10.017C89.8574 10.4137 89.2067 10.9548 88.7069 11.6394L88.719 11.5607L89.3113 9.7179H85.8632L84.9844 12.9248L84.9576 13.0363L81.3351 26.247H84.8704L86.6951 19.5971C86.8762 20.1886 87.2451 20.6529 87.8086 20.9887C88.3721 21.3232 89.0678 21.4891 89.895 21.4891C90.9213 21.4891 91.9007 21.2464 92.8299 20.7611C93.7623 20.2745 94.5673 19.5741 95.2516 18.6691C95.9358 17.7641 96.4437 16.7148 96.7677 15.5277C97.0964 14.3388 97.1635 13.2783 96.9756 12.3503C96.7845 11.421 96.3612 10.7016 95.7078 10.1927M107.424 15.4818C107.122 16.577 106.659 17.4165 106.035 17.9936C105.411 18.5746 104.66 18.8639 103.788 18.8639C102.896 18.8639 102.292 18.5819 101.977 18.0113C101.655 17.4407 101.648 16.6144 101.943 15.5323C102.238 14.4502 102.709 13.6042 103.36 12.9943C104.011 12.3844 104.772 12.0801 105.646 12.0801C106.518 12.0801 107.108 12.3753 107.417 12.9589C107.725 13.5446 107.727 14.386 107.427 15.4838L107.424 15.4818ZM109 9.72053L108.549 11.3666C108.354 10.7731 107.979 10.3009 107.422 9.95006C106.858 9.59986 106.167 9.42541 105.342 9.42541C104.329 9.42541 103.351 9.68118 102.417 10.1927C101.485 10.7042 100.667 11.4217 99.9689 12.3503C99.2712 13.279 98.7614 14.3374 98.4327 15.5245C98.1073 16.7161 98.0436 17.7608 98.2382 18.6697C98.4347 19.5748 98.858 20.2739 99.5127 20.7618C100.166 21.2471 101.009 21.4924 102.035 21.4924C102.86 21.4924 103.648 21.3245 104.396 20.9874C105.126 20.6636 105.774 20.1885 106.297 19.5951L105.827 21.312H109.309L112.487 9.72381H109.006L109 9.72053ZM127.104 9.72446L127.106 9.72118H124.966C124.898 9.72118 124.838 9.72446 124.775 9.72577H123.665L123.095 10.4996L122.954 10.6833L122.893 10.7751L118.382 16.9187L117.45 9.72446H113.755L115.626 20.6568L111.494 26.2509H115.177L116.176 24.8652C116.205 24.8245 116.23 24.7904 116.264 24.7471L117.431 23.1273L117.464 23.0814L122.692 15.8347L127.1 9.73561L127.106 9.73168H127.104V9.72446Z" fill="#072654"/>
</svg>
