<svg width="149" height="28" viewBox="0 0 149 28" fill="none" xmlns="http://www.w3.org/2000/svg">
<path d="M16.655 0.483081C31.69 0.483081 46.725 0.443523 61.76 0.496267C72.0971 0.532528 82.431 0.717131 92.7682 0.802839C107.747 0.928106 122.728 1.02041 137.707 1.13908C139.197 1.14897 140.688 1.25116 142.178 1.26105C146.474 1.29072 149.006 3.8356 148.623 8.09795C148.333 11.3318 147.705 14.536 147.206 17.7533C147.049 18.772 146.833 19.7807 146.63 20.7927C146.031 23.8123 144.667 25.1144 141.553 25.7902C139.031 26.3341 136.482 26.0605 133.947 26.1099C124.941 26.2813 115.931 26.3473 106.925 26.4626C90.5124 26.6769 74.1 26.8879 57.6876 27.1154C42.9321 27.3197 28.1799 27.5439 13.4244 27.7648C11.4914 27.7944 9.55833 27.9098 7.62863 27.8834C3.68273 27.8307 0.944561 25.3089 0.691705 21.4289C0.365652 16.4512 0.185991 11.467 0.0063296 6.47938C-0.166678 1.66652 3.23691 0.0743171 6.53735 0.0248699C9.911 -0.0245773 13.2813 0.0149805 16.655 0.0149805C16.655 0.169915 16.655 0.328146 16.655 0.483081ZM105.498 13.8009C105.498 12.4988 105.464 11.1966 105.511 9.89783C105.541 9.06382 105.231 8.72428 104.366 8.74406C102.6 8.78032 100.826 8.84625 99.0696 8.7111C98.3177 8.65506 97.8985 9.66378 97.3495 9.23524C96.378 8.47705 95.3367 8.88581 94.3319 8.75066C92.6983 8.52979 91.0814 9.31765 89.4278 8.77703C89.0019 8.63858 88.3565 8.64187 88.2633 9.32754C88.2001 9.78905 88.0437 10.5373 88.5594 10.6428C90.0067 10.9395 89.5742 11.9779 89.5975 12.8185C89.6407 14.3349 89.694 15.8612 89.5842 17.371C89.4944 18.6269 90.1198 18.8016 91.1612 18.8016C92.1926 18.8016 92.8647 18.6335 92.8181 17.394C92.7515 15.6073 92.8381 13.814 92.7881 12.0274C92.7615 11.0747 93.021 10.5802 94.089 10.7351C94.9474 10.8604 96.0586 10.4681 95.9821 12.0241C95.8956 13.8108 96.0254 15.604 95.9422 17.3907C95.8823 18.65 96.5477 18.8016 97.5758 18.8016C98.6072 18.8016 99.2693 18.6401 99.216 17.3874C99.1362 15.6007 99.2426 13.8075 99.1794 12.0208C99.1428 10.9725 99.6219 10.6626 100.573 10.7747C101.429 10.8736 102.566 10.4681 102.513 12.0274C102.45 13.9228 102.53 15.8216 102.49 17.7204C102.467 18.7917 103.165 18.7983 103.917 18.7851C104.682 18.7687 105.541 18.9104 105.508 17.7072C105.471 16.4051 105.498 15.103 105.498 13.8009ZM86.3004 13.7976C86.3004 12.4955 86.2837 11.1933 86.307 9.89124C86.3203 9.18909 86.144 8.74077 85.3089 8.74736C83.4291 8.76714 81.5493 8.80999 79.6729 8.72758C79.0074 8.69791 78.6548 9.68356 78.1125 9.23853C77.2075 8.49353 76.2127 8.86603 75.2612 8.75066C73.5278 8.53968 71.8044 9.34732 70.0543 8.77373C69.675 8.64846 69.0961 8.68473 69.0562 9.30776C69.0263 9.76927 68.8067 10.5275 69.3224 10.6329C70.7763 10.9395 70.3172 11.9878 70.3438 12.8185C70.3937 14.3349 70.4303 15.8612 70.3371 17.3743C70.2606 18.6236 70.8961 18.8016 71.9408 18.8016C72.9921 18.8016 73.6209 18.5972 73.571 17.3677C73.4978 15.581 73.5943 13.7844 73.5378 11.9977C73.5078 11.0054 73.8438 10.5868 74.8786 10.7351C75.7369 10.8571 76.8349 10.4516 76.7417 12.0274C76.6353 13.8668 76.755 15.7161 76.7051 17.5621C76.6719 18.8115 77.4903 18.7818 78.3587 18.7851C79.2437 18.7884 80.0122 18.7786 79.9656 17.5325C79.8958 15.6897 79.9989 13.8404 79.9324 11.9977C79.8891 10.7615 80.6244 10.7252 81.5294 10.7681C82.421 10.811 83.3326 10.6824 83.2694 12.0636C83.1862 13.8503 83.306 15.6469 83.2295 17.4336C83.1829 18.5676 83.7119 18.8016 84.72 18.8016C85.7614 18.8016 86.4201 18.6269 86.3237 17.3775C86.2272 16.1908 86.3004 14.9942 86.3004 13.7976ZM25.4218 18.7851C25.9175 18.7851 26.4166 18.7851 26.9123 18.7851C31.5901 18.7851 31.5635 18.7851 31.4304 14.1833C31.4005 13.1449 31.0778 12.7031 29.9832 12.7526C28.2731 12.8317 26.5596 12.8119 24.8495 12.8548C24.0211 12.8746 23.4854 12.7196 23.512 11.701C23.5386 10.7154 24.1342 10.7187 24.8362 10.722C26.716 10.7285 28.5925 10.7088 30.4722 10.7285C31.2042 10.7351 31.6001 10.5143 31.6101 9.71323C31.6201 8.86603 31.151 8.74077 30.4523 8.74736C28.2963 8.76384 26.1437 8.75395 23.9878 8.75395C19.5728 8.75395 19.6293 8.75395 19.6061 13.0888C19.5994 14.4404 20.0918 14.77 21.3494 14.7041C23.003 14.6184 24.6632 14.6942 26.3201 14.6777C26.9955 14.6711 27.5345 14.7535 27.5478 15.5974C27.5644 16.5435 26.879 16.4249 26.2868 16.4315C24.5201 16.4413 22.7501 16.4446 20.9835 16.4315C20.165 16.4249 19.6194 16.5831 19.616 17.5918C19.6127 18.5676 20.0951 18.8016 20.9469 18.7884C22.4374 18.7687 23.9279 18.7851 25.4218 18.7851ZM12.037 8.75395C11.5413 8.75395 11.0422 8.75395 10.5465 8.75395C5.71224 8.75395 5.73886 8.75395 5.95845 13.4943C6.0017 14.4305 6.34106 14.7173 7.24269 14.6975C9.0626 14.6547 10.8858 14.7074 12.7091 14.6744C13.4543 14.6612 13.8802 14.8986 13.8669 15.67C13.8536 16.4809 13.2381 16.4315 12.6858 16.4348C10.9191 16.4413 9.15243 16.4545 7.38576 16.4315C6.50076 16.4216 5.93183 16.5699 5.95179 17.6709C5.96843 18.7159 6.55399 18.7917 7.33585 18.7884C9.26887 18.7818 11.2019 18.7884 13.1316 18.7884C17.8627 18.7884 17.8361 18.7884 17.683 14.1074C17.6497 13.1449 17.3603 12.7163 16.3455 12.7592C14.7485 12.8284 13.1482 12.8416 11.5479 12.8482C10.7561 12.8515 9.81451 13.0888 9.83115 11.7472C9.84778 10.5044 10.7161 10.7417 11.4514 10.7351C13.0517 10.7187 14.6554 10.7483 16.2557 10.722C16.9677 10.7088 17.8959 11.012 17.9459 9.76927C17.9958 8.49353 17.0642 8.77703 16.3455 8.76384C14.9082 8.73747 13.4743 8.75395 12.037 8.75395ZM62.1259 8.75395C60.6354 8.75395 59.1449 8.77703 57.6577 8.74406C56.8792 8.72758 56.5597 9.04404 56.5631 9.79234C56.5731 12.3933 56.5797 14.9942 56.5564 17.5951C56.5498 18.4159 56.8891 18.7884 57.7276 18.7851C60.652 18.7753 63.5765 18.7786 66.501 18.7786C67.243 18.7786 67.5956 18.4456 67.589 17.6841C67.569 15.0832 67.5657 12.4823 67.5923 9.88135C67.6023 9.05723 67.2995 8.7111 66.4311 8.74077C64.9972 8.78692 63.5599 8.75395 62.1259 8.75395ZM112.81 8.75395C111.32 8.75395 109.829 8.78362 108.339 8.74077C107.49 8.71769 107.164 9.01108 107.181 9.86816C107.221 12.4163 107.221 14.9612 107.181 17.5094C107.168 18.3962 107.574 18.6104 108.385 18.6038C111.257 18.5775 114.125 18.5939 116.996 18.5907C117.315 18.5907 117.771 18.6928 117.891 18.3467C118.23 17.371 118.333 16.3326 117.834 15.3931C117.591 14.9381 114.813 14.9777 114.713 15.4194C114.328 17.1369 113 16.5238 111.962 16.6227C111.087 16.7051 110.505 16.5435 110.491 15.4293C110.478 14.292 110.984 14.0151 111.989 14.0778C112.704 14.1206 113.423 14.0877 114.141 14.0877C118.397 14.0877 118.373 14.0877 118.124 9.87476C118.074 9.03086 117.788 8.72428 116.946 8.74736C115.572 8.78032 114.191 8.75395 112.81 8.75395ZM49.5896 8.75395C48.2088 8.75395 46.8281 8.79021 45.4507 8.74077C44.5457 8.7078 44.1598 8.99459 44.1797 9.94068C44.2297 12.4889 44.2163 15.037 44.1831 17.5819C44.1731 18.406 44.4858 18.7851 45.3276 18.7818C48.1988 18.772 51.0701 18.7818 53.9414 18.7753C54.3772 18.7753 54.8264 18.7753 55.0626 18.2808C55.8977 16.5238 54.8962 14.9942 52.9665 15.0337C52.2312 15.0502 51.6324 15.1228 51.5725 16.0095C51.5326 16.593 51.11 16.6259 50.6376 16.6787C47.7131 17.005 47.5334 16.8567 47.5334 13.9954C47.5334 13.2899 47.5334 12.5845 47.5368 11.8823C47.5401 11.3285 47.5334 10.6593 48.2953 10.6857C49.3434 10.722 51.0268 10.089 51.313 11.0615C51.7987 12.7229 52.8401 12.2911 53.8482 12.3438C55.4152 12.4229 55.006 11.256 55.0626 10.4022C55.1258 9.46929 55.0992 8.65506 53.7351 8.73417C52.3543 8.81658 50.9703 8.75395 49.5896 8.75395ZM37.9049 18.7851C38.6801 18.7851 39.452 18.7851 40.2272 18.7851C42.9288 18.7851 42.9354 18.7687 42.789 16.1908C42.7524 15.5612 42.7258 14.8458 41.8741 14.981C40.9525 15.1293 39.5984 14.2162 39.1792 15.6403C38.8831 16.649 38.2975 16.5864 37.5789 16.56C36.5342 16.5238 36.7404 15.7359 36.7305 15.1228C36.7072 13.5503 36.634 11.968 36.7471 10.4055C36.8502 8.95833 36.1915 8.7045 34.8972 8.71769C33.6662 8.72758 33.0441 8.96493 33.1705 10.3396C33.2903 11.6318 33.1971 12.9405 33.1971 14.2426C33.1938 18.7851 33.1938 18.7851 37.9049 18.7851ZM123.47 14.6876C123.47 13.6558 123.474 12.624 123.467 11.5922C123.464 11.1142 123.56 10.7154 124.149 10.6725C124.595 10.6395 125.22 10.5901 125.284 11.0747C125.54 12.9998 127.017 12.1724 127.995 12.2317C129.709 12.3405 129.033 10.9659 129.156 10.1253C129.286 9.23194 129.023 8.77043 127.929 8.72099C125.337 8.60231 122.758 9.12316 120.17 8.76714C119.764 8.7111 119.212 8.64846 119.125 9.26491C119.065 9.67697 118.909 10.2835 119.375 10.445C120.582 10.8637 120.25 11.8032 120.266 12.6141C120.296 14.1898 120.293 15.7623 120.27 17.338C120.256 18.1885 120.523 18.5841 121.501 18.6269C122.901 18.6862 123.763 18.4555 123.487 16.804C123.374 16.115 123.467 15.3931 123.47 14.6876ZM135.774 10.6395C135.165 12.0966 134.47 12.3603 133.465 11.1637C133.465 12.4032 133.475 13.3756 133.462 14.3448C133.452 14.8524 133.598 15.192 134.183 15.192C135.365 15.192 136.546 15.192 138.063 15.192C136.24 13.9822 137.274 13.3097 138.193 12.5449C138.905 11.9515 139.537 11.2659 140.179 10.6C140.538 10.2242 140.675 9.74949 140.505 9.24842C140.329 8.72099 139.843 8.75725 139.404 8.75725C136.762 8.75395 134.117 8.76714 131.475 8.75066C130.823 8.74736 130.47 8.8924 130.46 9.644C130.447 10.4582 130.797 10.6692 131.545 10.6494C132.896 10.6132 134.253 10.6395 135.774 10.6395ZM132.849 13.8141C131.751 15.0964 130.986 15.9436 130.281 16.8336C129.333 18.0237 129.619 18.7851 131.139 18.8346C133.897 18.9236 136.662 18.8511 139.424 18.8774C140.428 18.8873 140.571 18.3137 140.608 17.5094C140.648 16.6095 140.066 16.6787 139.44 16.5501C137.84 16.2205 135.983 17.4303 134.609 15.7853C133.172 16.3095 132.826 15.4755 132.849 13.8141Z" fill="#2B5EAB"/>
<path d="M105.503 13.805C105.503 15.1071 105.477 16.4092 105.51 17.708C105.543 18.9112 104.685 18.7695 103.92 18.786C103.164 18.8024 102.469 18.7959 102.492 17.7212C102.532 15.8257 102.452 13.9237 102.516 12.0282C102.569 10.4689 101.431 10.8744 100.576 10.7755C99.6243 10.6667 99.1452 10.9766 99.1818 12.0216C99.2451 13.8083 99.1386 15.6016 99.2184 17.3883C99.275 18.6409 98.6096 18.8024 97.5782 18.8024C96.5501 18.8024 95.8847 18.6475 95.9446 17.3916C96.0311 15.6049 95.898 13.8116 95.9845 12.0249C96.0611 10.4689 94.9498 10.8612 94.0914 10.736C93.0235 10.581 92.7606 11.0755 92.7906 12.0282C92.8438 13.8149 92.754 15.6082 92.8205 17.3948C92.8671 18.6376 92.195 18.8024 91.1636 18.8024C90.1189 18.8024 89.4934 18.6277 89.5866 17.3718C89.6964 15.862 89.6432 14.3357 89.5999 12.8193C89.5766 11.982 90.0091 10.9403 88.5619 10.6437C88.0462 10.5382 88.2025 9.78987 88.2657 9.32836C88.3589 8.64269 89.0077 8.6394 89.4302 8.77785C91.0838 9.31847 92.7007 8.53061 94.3343 8.75148C95.3358 8.88663 96.3805 8.47787 97.352 9.23606C97.9009 9.6646 98.3201 8.65258 99.0721 8.71192C100.829 8.84707 102.602 8.78114 104.369 8.74488C105.234 8.7251 105.543 9.06464 105.513 9.89865C105.47 11.2008 105.503 12.5029 105.503 13.805Z" fill="#F3F6FA"/>
<path d="M86.3064 13.8027C86.3064 14.9961 86.2332 16.196 86.3264 17.3827C86.4228 18.6354 85.7641 18.8068 84.7227 18.8068C83.7146 18.8068 83.1823 18.5727 83.2322 17.4388C83.3087 15.6521 83.1889 13.8555 83.2721 12.0688C83.3353 10.6876 82.4237 10.8128 81.5321 10.7733C80.6271 10.7304 79.8885 10.7667 79.9351 12.0029C80.0016 13.8456 79.8985 15.6949 79.9683 17.5376C80.0182 18.7837 79.2464 18.7936 78.3614 18.7903C77.493 18.787 76.6745 18.8167 76.7078 17.5673C76.7577 15.7246 76.6379 13.872 76.7444 12.0325C76.8376 10.4568 75.7396 10.859 74.8813 10.7403C73.8465 10.5953 73.5105 11.0139 73.5405 12.0029C73.597 13.7928 73.5005 15.5861 73.5737 17.3728C73.6236 18.5991 72.9948 18.8068 71.9435 18.8068C70.8988 18.8068 70.2633 18.6288 70.3398 17.3794C70.433 15.8663 70.3964 14.3401 70.3465 12.8237C70.3199 11.993 70.779 10.9447 69.3251 10.6381C68.8094 10.5293 69.0323 9.77443 69.0589 9.31293C69.0988 8.68989 69.6744 8.65363 70.057 8.7789C71.807 9.35248 73.5305 8.54485 75.2639 8.75582C76.2154 8.8712 77.2102 8.4987 78.1152 9.2437C78.6575 9.68873 79.0101 8.70308 79.6756 8.73275C81.552 8.81516 83.4318 8.7756 85.3116 8.75252C86.1467 8.74264 86.323 9.19425 86.3097 9.8964C86.2898 11.1985 86.3064 12.5006 86.3064 13.8027Z" fill="#F3F6FA"/>
<path d="M25.4232 18.7861C23.9327 18.7861 22.4388 18.7729 20.9483 18.7927C20.0966 18.8025 19.6175 18.5718 19.6175 17.596C19.6208 16.5906 20.1664 16.4291 20.9849 16.4357C22.7516 16.4489 24.5216 16.4456 26.2882 16.4357C26.8804 16.4324 27.5658 16.5478 27.5492 15.6017C27.5326 14.7578 26.9969 14.6754 26.3215 14.6819C24.6646 14.6984 23.0011 14.6226 21.3509 14.7083C20.0932 14.7742 19.6008 14.4413 19.6075 13.093C19.6308 8.75487 19.5742 8.75487 23.9892 8.75487C26.1452 8.75487 28.2978 8.76476 30.4537 8.74828C31.1524 8.74169 31.6215 8.87025 31.6115 9.71415C31.6016 10.5152 31.2056 10.7361 30.4737 10.7295C28.5939 10.7097 26.7174 10.7295 24.8376 10.7229C24.1356 10.7196 23.5401 10.7163 23.5135 11.7019C23.4868 12.7172 24.0225 12.8755 24.8509 12.8557C26.5611 12.8128 28.2745 12.8326 29.9846 12.7535C31.0792 12.7041 31.4019 13.1458 31.4319 14.1842C31.565 18.7861 31.5916 18.7861 26.9137 18.7861C26.418 18.7861 25.9189 18.7861 25.4232 18.7861Z" fill="#F3F6FA"/>
<path d="M12.0356 8.75374C13.4696 8.75374 14.9068 8.73725 16.3408 8.76033C17.0595 8.77351 17.991 8.49002 17.9411 9.76576C17.8912 11.0085 16.9663 10.7053 16.251 10.7184C14.6507 10.7481 13.0503 10.7151 11.4467 10.7316C10.7114 10.7382 9.83973 10.5042 9.82642 11.7436C9.80979 13.082 10.7547 12.848 11.5432 12.8447C13.1435 12.8414 14.7438 12.8249 16.3408 12.7557C17.3589 12.7128 17.645 13.1381 17.6783 14.1039C17.8347 18.7849 17.858 18.7849 13.1269 18.7849C11.1938 18.7849 9.26082 18.7816 7.33113 18.7849C6.54927 18.7882 5.9637 18.7124 5.94707 17.6674C5.9271 16.5664 6.49603 16.4181 7.38103 16.4279C9.1477 16.451 10.9144 16.4378 12.681 16.4312C13.2333 16.4279 13.8488 16.4774 13.8621 15.6665C13.8755 14.8951 13.4496 14.6577 12.7043 14.6709C10.8844 14.7039 9.0612 14.6511 7.23797 14.694C6.33633 14.7138 5.99697 14.4303 5.95372 13.4908C5.73414 8.74714 5.70419 8.75044 10.5417 8.75044C11.0441 8.75374 11.5399 8.75374 12.0356 8.75374Z" fill="#F3F6FA"/>
<path d="M62.1204 8.75517C63.5543 8.75517 64.9916 8.78814 66.4256 8.74198C67.294 8.71232 67.5934 9.05845 67.5867 9.88257C67.5601 12.4835 67.5635 15.0844 67.5834 17.6853C67.5901 18.4468 67.2407 18.7765 66.4955 18.7798C63.571 18.7798 60.6465 18.7765 57.722 18.7864C56.8836 18.7897 56.5442 18.4172 56.5509 17.5963C56.5742 14.9954 56.5675 12.3945 56.5575 9.79356C56.5542 9.04526 56.8736 8.7288 57.6521 8.74528C59.1393 8.77825 60.6299 8.75517 62.1204 8.75517ZM64.4327 13.9109C64.4327 13.3702 64.3761 12.823 64.4427 12.289C64.599 11.0462 64.0368 10.7166 62.8357 10.7528C59.2225 10.8583 59.8047 10.3507 59.7482 13.7526C59.7415 14.1317 59.7981 14.5174 59.7382 14.8866C59.512 16.2942 60.031 16.7689 61.5282 16.7129C64.4294 16.6041 64.4327 16.6898 64.4327 13.9109Z" fill="#F3F6FA"/>
<path d="M112.816 8.75504C114.197 8.75504 115.577 8.78141 116.955 8.74515C117.797 8.72207 118.083 9.02865 118.133 9.87254C118.379 14.0887 118.405 14.0854 114.15 14.0854C113.431 14.0854 112.713 14.1217 111.997 14.0756C110.989 14.0129 110.484 14.2898 110.5 15.4271C110.514 16.5413 111.096 16.6996 111.971 16.6204C113.012 16.5248 114.336 17.138 114.722 15.4172C114.822 14.9755 117.6 14.9359 117.843 15.3909C118.342 16.3271 118.236 17.3654 117.9 18.3445C117.78 18.6873 117.324 18.5884 117.005 18.5884C114.133 18.595 111.262 18.5753 108.394 18.6016C107.582 18.6082 107.177 18.3972 107.19 17.5072C107.23 14.959 107.23 12.4141 107.19 9.86595C107.177 9.00887 107.499 8.71548 108.348 8.73855C109.835 8.78471 111.325 8.75504 112.816 8.75504ZM112.463 12.5163C112.899 12.5163 113.338 12.513 113.774 12.5163C114.596 12.5196 114.666 11.9361 114.526 11.4087C114.14 9.95496 112.909 10.8219 112.077 10.6835C111.505 10.5879 110.55 10.278 110.49 11.4582C110.46 12.0548 110.537 12.5427 111.319 12.5229C111.698 12.5097 112.081 12.5196 112.463 12.5163Z" fill="#F3F6FA"/>
<path d="M49.583 8.75325C50.9637 8.75325 52.3478 8.81589 53.7219 8.73677C55.086 8.65765 55.1126 9.47188 55.0494 10.4048C54.9928 11.2586 55.3987 12.4255 53.835 12.3464C52.8302 12.297 51.7888 12.7255 51.2998 11.0641C51.0136 10.0916 49.3335 10.7245 48.2821 10.6883C47.5202 10.6619 47.5269 11.3278 47.5235 11.8849C47.5202 12.5904 47.5202 13.2958 47.5202 13.998C47.5202 16.8593 47.6999 17.0076 50.6244 16.6813C51.0968 16.6285 51.516 16.5923 51.5593 16.0121C51.6225 15.1254 52.218 15.0528 52.9533 15.0363C54.883 14.9935 55.8844 16.5264 55.0494 18.2834C54.8131 18.7779 54.364 18.7779 53.9281 18.7779C51.0569 18.7877 48.1856 18.7779 45.3144 18.7844C44.4726 18.7877 44.1599 18.4086 44.1699 17.5845C44.2031 15.0363 44.2131 12.4882 44.1665 9.94328C44.1499 8.99719 44.5325 8.7104 45.4375 8.74336C46.8215 8.78951 48.2023 8.75325 49.583 8.75325Z" fill="#F3F6FA"/>
<path d="M37.8964 18.7877C33.1853 18.7877 33.1853 18.7877 33.1853 14.2451C33.1853 12.943 33.2785 11.631 33.1587 10.3421C33.0322 8.96744 33.6544 8.73009 34.8854 8.7202C36.1796 8.70702 36.8384 8.96084 36.7353 10.408C36.6221 11.9738 36.6953 13.5528 36.7186 15.1253C36.7286 15.7384 36.5223 16.5263 37.567 16.5625C38.2857 16.5856 38.8712 16.6482 39.1674 15.6428C39.5866 14.2187 40.9407 15.1319 41.8623 14.9835C42.714 14.8484 42.7406 15.5637 42.7772 16.1933C42.9269 18.7745 42.9203 18.7877 40.2154 18.7877C39.4435 18.7877 38.6683 18.7877 37.8964 18.7877Z" fill="#F3F6FA"/>
<path d="M123.476 14.691C123.476 15.3965 123.379 16.1184 123.492 16.8041C123.769 18.4589 122.907 18.6897 121.506 18.627C120.528 18.5842 120.262 18.1886 120.275 17.3381C120.298 15.7624 120.302 14.19 120.272 12.6143C120.255 11.8033 120.588 10.8605 119.38 10.4452C118.914 10.2836 119.071 9.67709 119.131 9.26503C119.217 8.64859 119.769 8.71122 120.175 8.76726C122.764 9.12328 125.346 8.60244 127.934 8.72111C129.029 8.77056 129.291 9.23207 129.162 10.1254C129.042 10.966 129.714 12.3374 128.001 12.2319C127.022 12.1692 125.545 12.9999 125.289 11.0748C125.222 10.5869 124.597 10.6364 124.154 10.6726C123.569 10.7188 123.469 11.1144 123.472 11.5923C123.482 12.6274 123.476 13.6592 123.476 14.691Z" fill="#F3F6FA"/>
<path d="M135.786 10.6419C134.265 10.6419 132.908 10.6188 131.554 10.6518C130.805 10.6715 130.456 10.4573 130.469 9.64633C130.482 8.89144 130.832 8.74969 131.484 8.75299C134.126 8.76947 136.771 8.75958 139.412 8.75958C139.851 8.75958 140.337 8.72332 140.514 9.25075C140.68 9.75182 140.547 10.2265 140.187 10.6023C139.545 11.2715 138.913 11.9539 138.201 12.5472C137.283 13.312 136.248 13.9845 138.071 15.1943C136.554 15.1943 135.373 15.1943 134.192 15.1943C133.607 15.1943 133.463 14.8548 133.47 14.3471C133.487 13.3779 133.473 12.4055 133.473 11.166C134.482 12.3626 135.174 12.0956 135.786 10.6419Z" fill="#F3F6FA"/>
<path d="M132.85 13.8125C132.823 15.4739 133.169 16.3079 134.603 15.7838C135.977 17.4287 137.834 16.2222 139.434 16.5486C140.059 16.6771 140.642 16.6079 140.602 17.5079C140.568 18.3122 140.422 18.8858 139.417 18.8759C136.656 18.8495 133.891 18.922 131.133 18.833C129.616 18.7836 129.33 18.0221 130.274 16.8321C130.99 15.942 131.755 15.0948 132.85 13.8125Z" fill="#F3F6FA"/>
<path d="M64.4425 13.9107C64.4425 16.6896 64.4391 16.6039 61.5379 16.7127C60.0408 16.7687 59.5217 16.294 59.748 14.8864C59.8079 14.5172 59.7513 14.1315 59.758 13.7524C59.8145 10.3505 59.2323 10.8581 62.8455 10.7526C64.0499 10.7164 64.6088 11.046 64.4525 12.2888C64.3859 12.8228 64.4425 13.37 64.4425 13.9107Z" fill="#2B5EAB"/>
<path d="M112.454 12.514C112.072 12.514 111.689 12.5074 111.306 12.5173C110.524 12.5371 110.448 12.0492 110.478 11.4526C110.538 10.2757 111.489 10.5856 112.065 10.6779C112.9 10.8163 114.131 9.94937 114.514 11.4031C114.653 11.9306 114.583 12.5173 113.762 12.5107C113.326 12.5107 112.89 12.514 112.454 12.514Z" fill="#2B5EAB"/>
</svg>
