<svg width="82" height="34" viewBox="0 0 82 34" fill="none" xmlns="http://www.w3.org/2000/svg">
<path d="M5.87297 13.6591C5.87297 12.7898 6.59924 12.4552 7.80233 12.4552C9.52711 12.4552 11.7059 12.9681 13.4308 13.8822V8.64285C11.5471 7.90718 9.68605 7.61733 7.80233 7.61733C3.19485 7.61733 0.130859 9.98063 0.130859 13.9269C0.130859 20.08 8.75536 19.0992 8.75536 21.7523C8.75536 22.7777 7.84765 23.1122 6.57658 23.1122C4.69286 23.1122 2.28699 22.3541 0.380447 21.3286V26.6347C2.49125 27.5265 4.62472 27.9054 6.57658 27.9054C11.2974 27.9054 14.543 25.6092 14.543 21.6184C14.5203 14.9747 5.87297 16.1562 5.87297 13.6591ZM21.2156 3.15848L15.6778 4.31771L15.6551 22.1757C15.6551 25.4755 18.1744 27.9054 21.5335 27.9054C23.3946 27.9054 24.7563 27.571 25.5052 27.1697V22.6439C24.7791 22.9338 21.1929 23.9593 21.1929 20.6597V12.7451H25.5052V7.99638H21.1929L21.2156 3.15848ZM32.5639 9.64611L32.2007 7.99638H27.2983V27.5041H32.9724V14.2835C34.3113 12.5668 36.5811 12.879 37.2847 13.1241V7.99638C36.5584 7.72879 33.9029 7.23829 32.5639 9.64611ZM38.669 7.99638H44.3658V27.5041H38.669V7.99638ZM38.669 6.30197L44.3658 5.09806V0.572266L38.669 1.75392V6.30181V6.30197ZM56.2133 7.61733C53.989 7.61733 52.5591 8.64285 51.7649 9.35642L51.4697 7.97412H46.4766V33.9695L52.1506 32.788L52.1734 26.4786C52.9905 27.0583 54.1933 27.8831 56.1906 27.8831C60.2533 27.8831 63.9527 24.6727 63.9527 17.6054C63.9301 11.1399 60.1851 7.61733 56.2133 7.61733ZM54.8516 22.9783C53.5125 22.9783 52.7179 22.5102 52.1734 21.9305L52.1506 13.6591C52.7407 13.0127 53.5578 12.5668 54.8516 12.5668C56.9169 12.5668 58.3467 14.8408 58.3467 17.7614C58.3467 20.7489 56.9395 22.9783 54.8516 22.9783ZM81.8374 17.8283C81.8374 12.1209 79.0229 7.61733 73.644 7.61733C68.2422 7.61733 64.9739 12.121 64.9739 17.7838C64.9739 24.4943 68.8325 27.8831 74.3701 27.8831C77.0711 27.8831 79.1138 27.2812 80.6571 26.4341V21.9751C79.1139 22.7331 77.3435 23.2014 75.0966 23.2014C72.895 23.2014 70.9431 22.4433 70.6935 19.8126H81.792C81.792 19.5226 81.8374 18.3633 81.8374 17.8283ZM70.6254 15.7103C70.6254 13.1911 72.1915 12.1431 73.6214 12.1431C75.0058 12.1431 76.4811 13.1911 76.4811 15.7103H70.6254Z" fill="#6772E5"/>
</svg>
