<svg width="100" height="100" viewBox="0 0 100 100" fill="none" xmlns="http://www.w3.org/2000/svg">
<g clip-path="url(#clip0_34_2239)">
<path d="M86.126 63.5156H46.4883L74.5107 91.5381C75.7496 92.777 77.8014 92.666 78.8801 91.2854C84.4443 84.1625 87.9336 75.7453 89.0367 66.7844C89.2508 65.0453 87.8783 63.5156 86.126 63.5156Z" fill="#890C25"/>
<path d="M37.3424 62.6603C36.793 62.1109 36.4842 61.3656 36.4842 60.5887V24.5742C36.4842 22.7795 34.8828 21.3922 33.1109 21.6781C14.3254 24.7105 -0.0588036 41.0676 0.00018075 60.709C0.0650245 82.3125 17.708 99.9478 39.3113 100.003C47.7394 100.024 55.7699 97.414 62.4678 92.5601C63.9219 91.5062 64.0768 89.3945 62.8068 88.1248L37.3424 62.6603Z" fill="#890C25"/>
<path d="M99.985 54.4305C97.0867 25.7699 74.2301 2.9135 45.5695 0.0150621C43.841 -0.159743 42.3438 1.20959 42.3438 2.9469V57.6563H97.0531C98.7904 57.6563 100.16 56.159 99.985 54.4305Z" fill="#890C25"/>
</g>
<defs>
<clipPath id="clip0_34_2239">
<rect width="100" height="100" fill="white"/>
</clipPath>
</defs>
</svg>
