<svg width="60" height="60" viewBox="0 0 60 60" fill="none" xmlns="http://www.w3.org/2000/svg">
<path d="M57.4219 23.625C57.0163 22.7274 56.5648 21.8513 56.0694 21L49.6869 38.3375C49.4435 38.9853 49.0895 39.5858 48.6406 40.1125C50.3538 39.9429 52.0048 39.3799 53.4646 38.4674C54.9245 37.5549 56.1539 36.3175 57.0569 34.8518C57.96 33.386 58.5123 31.7315 58.6707 30.0172C58.8292 28.3029 58.5896 26.5752 57.9706 24.9688C57.8006 24.5113 57.6181 24.0663 57.4219 23.625Z" fill="#890C25"/>
<path d="M20.7886 7.99641C17.0644 9.32208 13.6459 11.3856 10.7379 14.0633C7.82987 16.7411 5.49203 19.9781 3.86434 23.5806C2.23665 27.1831 1.35257 31.0769 1.26502 35.0291C1.17747 38.9812 1.88826 42.9104 3.35483 46.5814C3.39358 46.6602 3.41983 46.7377 3.45858 46.8164C4.23772 48.6771 5.50623 50.292 7.1294 51.4896C8.75258 52.6873 10.6698 53.423 12.6775 53.6186C14.6852 53.8142 16.7084 53.4624 18.5322 52.6006C20.356 51.7388 21.9124 50.3992 23.0361 48.7239C25.3862 45.1838 28.76 42.4445 32.7073 40.8714C32.8323 40.8214 32.9573 40.7839 33.0823 40.7377C33.5267 39.7124 34.1881 38.7956 35.0208 38.0505C35.8536 37.3054 36.8379 36.7496 37.9061 36.4214C37.8801 35.48 38.0731 34.5455 38.4698 33.6914L48.3448 12.3077C44.4659 9.36724 39.9185 7.43436 35.1096 6.68199C30.3007 5.92961 25.3802 6.38123 20.7886 7.99641ZM13.1261 40.6214C12.1372 40.6214 11.1705 40.3282 10.3482 39.7788C9.52598 39.2294 8.88512 38.4485 8.50668 37.5348C8.12824 36.6212 8.02923 35.6159 8.22215 34.646C8.41508 33.6761 8.89128 32.7851 9.59055 32.0859C10.2898 31.3866 11.1807 30.9104 12.1506 30.7175C13.1205 30.5246 14.1259 30.6236 15.0395 31.002C15.9531 31.3805 16.734 32.0213 17.2834 32.8436C17.8328 33.6658 18.1261 34.6325 18.1261 35.6214C18.1261 36.9475 17.5993 38.2193 16.6616 39.1569C15.7239 40.0946 14.4522 40.6214 13.1261 40.6214ZM19.3761 26.2464C18.3872 26.2464 17.4205 25.9532 16.5982 25.4038C15.776 24.8544 15.1351 24.0735 14.7567 23.1598C14.3782 22.2462 14.2792 21.2409 14.4722 20.271C14.6651 19.3011 15.1413 18.4101 15.8405 17.7109C16.5398 17.0116 17.4307 16.5354 18.4006 16.3425C19.3705 16.1496 20.3759 16.2486 21.2895 16.627C22.2031 17.0054 22.984 17.6463 23.5334 18.4686C24.0828 19.2908 24.3761 20.2575 24.3761 21.2464C24.3761 22.5725 23.8493 23.8443 22.9116 24.7819C21.9739 25.7196 20.7022 26.2464 19.3761 26.2464ZM34.3761 21.8714C33.3872 21.8714 32.4205 21.5782 31.5982 21.0288C30.776 20.4794 30.1351 19.6985 29.7567 18.7848C29.3782 17.8712 29.2792 16.8659 29.4722 15.896C29.6651 14.9261 30.1413 14.0351 30.8405 13.3359C31.5398 12.6366 32.4307 12.1604 33.4006 11.9675C34.3705 11.7746 35.3759 11.8736 36.2895 12.252C37.2031 12.6304 37.984 13.2713 38.5334 14.0936C39.0828 14.9158 39.3761 15.8825 39.3761 16.8714C39.3761 18.1975 38.8493 19.4693 37.9116 20.4069C36.9739 21.3446 35.7022 21.8714 34.3761 21.8714Z" fill="#890C25"/>
<path d="M56.8494 5.18546C56.2948 4.9551 55.6725 4.94854 55.1131 5.16716C54.5537 5.38577 54.1008 5.81256 53.8494 6.35796L40.7444 34.7392C40.4426 35.3921 40.345 36.1208 40.4643 36.8301C40.5837 37.5393 40.9144 38.196 41.4131 38.7142C40.1949 38.4285 38.9148 38.5847 37.801 39.1549C36.6872 39.7252 35.8122 40.6725 35.3319 41.828C33.3081 46.7155 36.5094 48.8592 34.4844 53.7467C36.7929 53.4888 38.992 52.6243 40.8582 51.2412C42.7244 49.858 44.1911 48.0054 45.1094 45.8717C45.5417 44.821 45.6232 43.6588 45.3416 42.5581C45.0601 41.4574 44.4306 40.477 43.5469 39.763C44.3461 39.866 45.1566 39.695 45.8461 39.2779C46.5356 38.8609 47.0633 38.2224 47.3431 37.4667L58.1431 8.12796C58.3482 7.56529 58.3281 6.94516 58.0871 6.39693C57.846 5.8487 57.4026 5.4147 56.8494 5.18546Z" fill="#890C25"/>
</svg>
