<svg width="60" height="60" viewBox="0 0 60 60" fill="none" xmlns="http://www.w3.org/2000/svg">
<path d="M22.0428 10.319C24.1549 8.21279 27.016 7.03003 29.9988 7.03003C32.9816 7.03003 35.8427 8.21279 37.9548 10.319C38.2209 10.5706 38.5746 10.7084 38.9408 10.7032C39.3069 10.6981 39.6566 10.5503 39.9155 10.2913C40.1744 10.0323 40.322 9.68251 40.327 9.31635C40.332 8.9502 40.194 8.59653 39.9423 8.33056C37.3026 5.69746 33.7263 4.21875 29.9979 4.21875C26.2694 4.21875 22.6932 5.69746 20.0534 8.33056C19.9169 8.45969 19.8075 8.61489 19.732 8.78699C19.6564 8.95909 19.6161 9.14459 19.6134 9.33254C19.6108 9.52048 19.6458 9.70705 19.7165 9.88122C19.7872 10.0554 19.892 10.2136 20.0249 10.3466C20.1578 10.4795 20.316 10.5844 20.4901 10.6552C20.6643 10.726 20.8508 10.7611 21.0388 10.7585C21.2267 10.756 21.4122 10.7157 21.5844 10.6403C21.7565 10.5648 21.9136 10.4555 22.0428 10.319Z" fill="#890C25"/>
<path d="M34.9708 14.7094C35.2487 14.7092 35.5204 14.6266 35.7514 14.472C35.9824 14.3175 36.1625 14.098 36.2688 13.8412C36.3752 13.5844 36.403 13.3018 36.3488 13.0292C36.2947 12.7565 36.161 12.5061 35.9645 12.3094C35.1835 11.5252 34.2549 10.9036 33.2322 10.4804C32.2095 10.0572 31.1131 9.8408 30.0063 9.8438H29.9975C28.8898 9.83989 27.7923 10.0558 26.7687 10.479C25.745 10.9023 24.8154 11.5244 24.0339 12.3094C23.8973 12.4386 23.788 12.5938 23.7124 12.7659C23.6369 12.938 23.5965 13.1235 23.5939 13.3114C23.5912 13.4993 23.6263 13.6859 23.697 13.8601C23.7676 14.0343 23.8725 14.1925 24.0054 14.3254C24.1383 14.4584 24.2965 14.5633 24.4706 14.6341C24.6447 14.7048 24.8313 14.74 25.0192 14.7374C25.2072 14.7348 25.3927 14.6946 25.5648 14.6191C25.737 14.5436 25.8922 14.4344 26.0214 14.2979C26.5426 13.775 27.1622 13.3608 27.8445 13.079C28.5268 12.7972 29.2582 12.6536 29.9964 12.6563H30.002C30.7399 12.654 31.4709 12.7979 32.1529 13.0797C32.8348 13.3614 33.4543 13.7754 33.9753 14.2979C34.1059 14.4288 34.261 14.5326 34.4319 14.6032C34.6028 14.6738 34.7859 14.7099 34.9708 14.7094Z" fill="#890C25"/>
<path d="M32.4 39.3175C32.1698 39.0876 31.867 38.9446 31.5432 38.9129C31.2194 38.8813 30.8946 38.9628 30.6242 39.1438C30.3538 39.3247 30.1545 39.5938 30.0603 39.9053C29.966 40.2167 29.9827 40.5511 30.1074 40.8516C30.2322 41.1521 30.4573 41.4001 30.7443 41.5532C31.0314 41.7064 31.3627 41.7552 31.6817 41.6915C32.0008 41.6278 32.2879 41.4554 32.4941 41.2037C32.7002 40.952 32.8128 40.6366 32.8125 40.3113C32.8125 40.1266 32.7761 39.9438 32.7053 39.7733C32.6345 39.6028 32.5308 39.4479 32.4 39.3175Z" fill="#890C25"/>
<path d="M52.5 24.8438H44.5312V55.7812H52.5C53.369 55.7771 54.2012 55.4301 54.8156 54.8156C55.4301 54.2012 55.7771 53.369 55.7812 52.5V28.125C55.7771 27.256 55.4301 26.4238 54.8156 25.8094C54.2012 25.1949 53.369 24.8479 52.5 24.8438ZM4.21875 28.125V52.5C4.22289 53.369 4.56992 54.2012 5.18438 54.8156C5.79884 55.4301 6.63103 55.7771 7.5 55.7812H41.7188V24.8438H7.5C6.63103 24.8479 5.79884 25.1949 5.18438 25.8094C4.56992 26.4238 4.22289 27.256 4.21875 28.125ZM13.125 37.5C13.125 37.127 13.2732 36.7694 13.5369 36.5056C13.8006 36.2419 14.1583 36.0938 14.5312 36.0938C14.9042 36.0938 15.2619 36.2419 15.5256 36.5056C15.7893 36.7694 15.9375 37.127 15.9375 37.5V38.9062H18.75V37.5C18.75 37.127 18.8982 36.7694 19.1619 36.5056C19.4256 36.2419 19.7833 36.0938 20.1562 36.0938C20.5292 36.0938 20.8869 36.2419 21.1506 36.5056C21.4143 36.7694 21.5625 37.127 21.5625 37.5V38.9062H27.45C27.6816 38.2324 28.0816 37.6289 28.6118 37.1529C29.1421 36.6769 29.7852 36.3443 30.4801 36.1865C31.175 36.0288 31.8986 36.0511 32.5825 36.2515C33.2663 36.4518 33.8876 36.8235 34.3875 37.3312C34.7798 37.7223 35.091 38.187 35.3034 38.6986C35.5157 39.2101 35.625 39.7586 35.625 40.3125C35.625 40.8664 35.5157 41.4149 35.3034 41.9264C35.091 42.438 34.7798 42.9027 34.3875 43.2938C33.8876 43.8015 33.2663 44.1732 32.5825 44.3735C31.8986 44.5739 31.175 44.5962 30.4801 44.4385C29.7852 44.2807 29.1421 43.9481 28.6118 43.4721C28.0816 42.9961 27.6816 42.3926 27.45 41.7188H14.5312C14.1591 41.7161 13.803 41.567 13.5399 41.3039C13.2767 41.0407 13.1277 40.6846 13.125 40.3125V37.5Z" fill="#890C25"/>
<path d="M30.0078 21.1094C31.5611 21.1094 32.8203 19.8502 32.8203 18.2969C32.8203 16.7436 31.5611 15.4844 30.0078 15.4844C28.4545 15.4844 27.1953 16.7436 27.1953 18.2969C27.1953 19.8502 28.4545 21.1094 30.0078 21.1094Z" fill="#890C25"/>
</svg>
