<svg width="30" height="30" viewBox="0 0 30 30" fill="none" xmlns="http://www.w3.org/2000/svg">
<g clip-path="url(#clip0_5143_10317)">
<path d="M28.5 0H7.50003C7.10221 0 6.72067 0.158035 6.43937 0.43934C6.15807 0.720644 6.00003 1.10218 6.00003 1.5V5.5295C4.9007 5.65351 3.88543 6.1777 3.14774 7.00216C2.41006 7.82662 2.00153 8.89369 2.00003 10V11.5C2.0004 11.8147 2.09958 12.1214 2.28358 12.3767C2.46758 12.632 2.7271 12.8231 3.02553 12.923C3.0858 13.4111 3.24826 13.881 3.50232 14.3021C3.75638 14.7232 4.09634 15.0861 4.50003 15.367V16.1L2.84603 16.4685C2.03731 16.6445 1.31347 17.0926 0.795465 17.7381C0.277463 18.3836 -0.00332168 19.1874 2.96559e-05 20.015V27C0.000556628 27.1748 0.0470313 27.3463 0.134791 27.4974C0.222551 27.6485 0.348509 27.7739 0.50003 27.861V28.5C0.50003 28.8978 0.658065 29.2794 0.93937 29.5607C1.22067 29.842 1.60221 30 2.00003 30H2.50003C2.6761 29.999 2.84871 29.951 3.00003 29.861C3.15135 29.951 3.32396 29.999 3.50003 30H9.50003C9.76525 30 10.0196 29.8946 10.2071 29.7071C10.3947 29.5196 10.5 29.2652 10.5 29V22.9935L11.0065 23.9395C11.1142 24.1951 11.2818 24.4211 11.4952 24.5983C11.7086 24.7754 11.9615 24.8987 12.2325 24.9575C12.4955 25.0194 12.7693 25.018 13.0316 24.9533C13.2939 24.8886 13.537 24.7626 13.741 24.5855L17.0245 22.1445C17.1124 22.0671 17.1841 21.9731 17.2356 21.8679C17.2871 21.7627 17.3173 21.6484 17.3245 21.5315C17.7134 21.2085 18.1597 20.9617 18.64 20.804C18.7786 20.7626 18.9103 20.7011 19.031 20.6215C19.2272 20.4989 19.3962 20.3374 19.5274 20.1469C19.6587 19.9564 19.7494 19.741 19.794 19.514C19.8232 19.3441 19.8253 19.1706 19.8 19H28.5C28.8979 19 29.2794 18.842 29.5607 18.5607C29.842 18.2794 30 17.8978 30 17.5V1.5C30 1.10218 29.842 0.720644 29.5607 0.43934C29.2794 0.158035 28.8979 0 28.5 0ZM6.50003 6.5C7.42792 6.50119 8.31747 6.87032 8.97359 7.52644C9.62971 8.18256 9.99884 9.07211 10 10V10.0895C9.98153 10.083 9.96403 10.0735 9.94503 10.0675C9.87954 9.83617 9.76067 9.62344 9.598 9.44641C9.43532 9.26939 9.23337 9.13301 9.00839 9.04824C8.78341 8.96347 8.54167 8.93268 8.30263 8.95834C8.06358 8.984 7.83389 9.06541 7.63203 9.196C7.29276 9.40635 6.89904 9.51209 6.50003 9.5C6.10125 9.51208 5.70774 9.40653 5.36853 9.1965C5.16658 9.06582 4.93678 8.98434 4.69761 8.95863C4.45844 8.93291 4.21657 8.96367 3.99145 9.04844C3.76633 9.13321 3.56425 9.26961 3.40144 9.44669C3.23862 9.62376 3.11963 9.83657 3.05403 10.068C3.03553 10.0735 3.01853 10.083 3.00003 10.0895V10C3.00122 9.07211 3.37035 8.18256 4.02647 7.52644C4.68259 6.87032 5.57214 6.50119 6.50003 6.5ZM3.50003 12C3.36742 12 3.24024 11.9473 3.14648 11.8536C3.05271 11.7598 3.00003 11.6326 3.00003 11.5C3.00003 11.3674 3.05271 11.2402 3.14648 11.1464C3.24024 11.0527 3.36742 11 3.50003 11C3.63573 10.9898 3.76259 10.9288 3.85528 10.8292C3.94797 10.7295 3.99966 10.5986 4.00003 10.4625C4.00178 10.369 4.02895 10.2777 4.07862 10.1984C4.1283 10.1191 4.19862 10.0549 4.28203 10.0125C4.36056 9.97069 4.44806 9.94856 4.53703 9.948C4.63728 9.94792 4.73534 9.97731 4.81903 10.0325C5.32078 10.3512 5.90579 10.5139 6.50003 10.5C7.09435 10.5134 7.67931 10.3504 8.18103 10.0315C8.26024 9.97983 8.35201 9.95068 8.44651 9.94716C8.54101 9.94363 8.6347 9.96588 8.71753 10.0115C8.80569 10.0582 8.87893 10.1288 8.92889 10.2152C8.97884 10.3016 9.00349 10.4003 9.00003 10.5C9.00003 10.6326 9.05271 10.7598 9.14648 10.8536C9.24024 10.9473 9.36742 11 9.50003 11C9.63264 11 9.75982 11.0527 9.85358 11.1464C9.94735 11.2402 10 11.3674 10 11.5C10 11.6326 9.94735 11.7598 9.85358 11.8536C9.75982 11.9473 9.63264 12 9.50003 12C9.36742 12 9.24024 12.0527 9.14648 12.1464C9.05271 12.2402 9.00003 12.3674 9.00003 12.5C9.00003 13.163 8.73664 13.7989 8.2678 14.2678C7.79896 14.7366 7.16307 15 6.50003 15C5.83699 15 5.2011 14.7366 4.73226 14.2678C4.26342 13.7989 4.00003 13.163 4.00003 12.5C4.00003 12.3674 3.94735 12.2402 3.85358 12.1464C3.75982 12.0527 3.63264 12 3.50003 12ZM7.49203 23.323L6.50003 23.9825L5.50803 23.323L5.93103 20.5H7.06903L7.49203 23.323ZM4.77003 17.0635C4.9792 17.3313 5.24263 17.5517 5.54303 17.7105C5.36547 17.965 5.23038 18.2467 5.14303 18.5445C5.13402 18.5735 5.11806 18.5999 5.09653 18.6213C5.07501 18.6428 5.04858 18.6586 5.01953 18.6675C4.98891 18.6786 4.95605 18.682 4.92381 18.6774C4.89157 18.6729 4.86092 18.6606 4.83453 18.6415C4.37798 18.2831 4.01938 17.8151 3.79203 17.281L4.77003 17.0635ZM5.86053 19.5L5.80253 19.326C5.94437 19.1871 6.04774 19.0138 6.10253 18.823C6.17158 18.5544 6.30845 18.308 6.50003 18.1075C6.69001 18.3059 6.8257 18.5499 6.89403 18.816C6.94955 19.0093 7.0543 19.1848 7.19803 19.3255L7.13953 19.5H5.86053ZM8.16053 18.643C8.13444 18.6617 8.10416 18.6737 8.07234 18.678C8.04051 18.6823 8.00813 18.6787 7.97803 18.6675C7.94791 18.6579 7.92065 18.6409 7.89874 18.6182C7.87682 18.5954 7.86094 18.5675 7.85253 18.537C7.76593 18.2417 7.63202 17.9624 7.45603 17.71C7.75099 17.5541 8.01044 17.3387 8.21803 17.0775L9.17853 17.336C8.95315 17.8491 8.60386 18.2982 8.16203 18.643H8.16053ZM6.50003 16C6.83874 16 7.17563 15.9504 7.50003 15.853V16.3715C7.38509 16.5383 7.23695 16.6796 7.06488 16.7866C6.8928 16.8935 6.70051 16.9638 6.50003 16.993C6.29965 16.9639 6.10743 16.8937 5.93537 16.787C5.76331 16.6802 5.61511 16.5391 5.50003 16.3725V15.853C5.82443 15.9504 6.16132 16 6.50003 16ZM2.00003 29C1.86742 29 1.74024 28.9473 1.64648 28.8536C1.55271 28.7598 1.50003 28.6326 1.50003 28.5V28H2.50003V29H2.00003ZM3.50003 28H6.00003V29H3.50003V28ZM7.00003 29V28H9.50003V29H7.00003ZM13.1105 23.8105C13.0224 23.8901 12.9163 23.9473 12.8013 23.977C12.6863 24.0068 12.5658 24.0083 12.45 23.9815C12.3276 23.9527 12.2141 23.8945 12.1194 23.8117C12.0246 23.729 11.9516 23.6244 11.9065 23.507L10.441 20.764C10.3885 20.6656 10.3046 20.5877 10.2026 20.5425C10.1007 20.4973 9.98656 20.4875 9.8784 20.5146C9.77024 20.5418 9.67425 20.6043 9.6057 20.6922C9.53714 20.7802 9.49995 20.8885 9.50003 21V27H3.50003V21C3.50003 20.8674 3.44735 20.7402 3.35358 20.6464C3.25981 20.5527 3.13264 20.5 3.00003 20.5C2.86742 20.5 2.74024 20.5527 2.64648 20.6464C2.55271 20.7402 2.50003 20.8674 2.50003 21V27H1.00003V20.015C0.998537 19.4617 1.17284 18.9223 1.4978 18.4745C1.82275 18.0267 2.28156 17.6937 2.80803 17.5235C3.10497 18.2816 3.60025 18.946 4.24203 19.447C4.42369 19.5782 4.63888 19.655 4.86253 19.6685L4.98753 20.0435L4.50953 23.2375C4.4856 23.4077 4.51016 23.5812 4.58038 23.7381C4.6506 23.895 4.76364 24.0289 4.90653 24.1245L5.99453 24.85C6.14424 24.9498 6.32012 25.003 6.50003 25.003C6.67994 25.003 6.85582 24.9498 7.00553 24.85L8.09353 24.127C8.23678 24.031 8.35001 23.8965 8.42015 23.7389C8.4903 23.5814 8.51452 23.4072 8.49003 23.2365L8.01253 20.046L8.13603 19.675C8.35966 19.6605 8.57455 19.5827 8.75553 19.4505C9.37749 18.9677 9.86138 18.3296 10.1585 17.6005L10.234 17.6205C10.662 17.7147 11.0595 17.9146 11.3904 18.2019C11.7212 18.4893 11.9748 18.8549 12.128 19.2655L12.8 21.059C12.8543 21.2035 12.9421 21.3331 13.0561 21.4372C13.1701 21.5413 13.3071 21.6169 13.456 21.6579C13.6048 21.6989 13.7613 21.704 13.9125 21.6729C14.0637 21.6418 14.2054 21.5754 14.326 21.479L15.45 20.579L16.2735 21.4585L13.1105 23.8105ZM15.557 19.55C15.4406 19.5365 15.3226 19.5462 15.2099 19.5784C15.0971 19.6105 14.9918 19.6646 14.9 19.7375L13.737 20.706L13.0965 19H16.1105C15.9376 19.1947 15.7528 19.3783 15.557 19.55ZM18.4835 19.7815C18.4445 19.8078 18.4019 19.8284 18.357 19.8425C17.8164 20.012 17.3098 20.275 16.86 20.6195L16.4055 20.134C16.8433 19.7358 17.2068 19.2629 17.479 18.7375C17.5099 18.6894 17.553 18.6503 17.604 18.6245C17.7781 18.516 17.9862 18.4757 18.1882 18.5114C18.3901 18.5471 18.5718 18.6563 18.698 18.818C18.7501 18.8897 18.7869 18.9714 18.8063 19.0579C18.8256 19.1444 18.8271 19.2339 18.8105 19.321C18.7909 19.4165 18.7517 19.5069 18.6954 19.5865C18.6391 19.666 18.567 19.7331 18.4835 19.7835V19.7815ZM18 13.5C17.8674 13.5 17.7402 13.5527 17.6465 13.6464C17.5527 13.7402 17.5 13.8674 17.5 14V14.4745C16.2237 14.3462 15.0455 13.7323 14.2091 12.7598C13.3727 11.7872 12.9421 10.5304 13.0063 9.24925C13.0705 7.96811 13.6247 6.76065 14.5541 5.87661C15.4836 4.99257 16.7173 4.49956 18 4.49956C19.2828 4.49956 20.5165 4.99257 21.4459 5.87661C22.3754 6.76065 22.9295 7.96811 22.9938 9.24925C23.058 10.5304 22.6274 11.7872 21.791 12.7598C20.9545 13.7323 19.7764 14.3462 18.5 14.4745V14C18.5 13.8674 18.4474 13.7402 18.3536 13.6464C18.2598 13.5527 18.1326 13.5 18 13.5ZM29 17.5C29 17.6326 28.9474 17.7598 28.8536 17.8536C28.7598 17.9473 28.6326 18 28.5 18H19.3C19.075 17.789 18.7995 17.6394 18.5 17.5655V15.4745C20.0426 15.3455 21.4757 14.6253 22.4997 13.4644C23.5237 12.3035 24.0594 10.7918 23.9948 9.24515C23.9303 7.69852 23.2704 6.23669 22.1533 5.16517C21.0361 4.09365 19.548 3.49537 18 3.49537C16.4521 3.49537 14.964 4.09365 13.8468 5.16517C12.7296 6.23669 12.0698 7.69852 12.0053 9.24515C11.9407 10.7918 12.4764 12.3035 13.5004 13.4644C14.5244 14.6253 15.9574 15.3455 17.5 15.4745V17.589C17.35 17.6329 17.2065 17.6968 17.0735 17.779C16.9737 17.8412 16.8818 17.9154 16.8 18H12.556C12.0446 17.3161 11.3057 16.8373 10.4725 16.65L8.50003 16.117V15.367C8.90372 15.0861 9.24368 14.7232 9.49774 14.3021C9.7518 13.881 9.91426 13.4111 9.97453 12.923C10.273 12.8231 10.5325 12.632 10.7165 12.3767C10.9005 12.1214 10.9997 11.8147 11 11.5V10C10.9985 8.89369 10.59 7.82662 9.85232 7.00216C9.11463 6.1777 8.09936 5.65351 7.00003 5.5295V1.5C7.00003 1.36739 7.05271 1.24021 7.14648 1.14645C7.24025 1.05268 7.36742 1 7.50003 1H28.5C28.6326 1 28.7598 1.05268 28.8536 1.14645C28.9474 1.24021 29 1.36739 29 1.5V17.5Z" fill="#00001B"/>
<path d="M21 9.50001C21.0009 9.27878 20.9484 9.0606 20.847 8.86398C20.7456 8.66736 20.5983 8.49808 20.4175 8.3705L18.0715 6.7365C17.8776 6.59837 17.6491 6.51701 17.4115 6.50156C17.1739 6.4861 16.9367 6.53716 16.7265 6.649C16.5056 6.76553 16.321 6.94054 16.1929 7.15492C16.0648 7.36929 15.9981 7.61477 16 7.8645V11.1355C15.9983 11.3849 16.065 11.6301 16.1929 11.8443C16.3208 12.0584 16.5051 12.2333 16.7255 12.35C16.9357 12.4621 17.1729 12.5133 17.4105 12.4978C17.6481 12.4823 17.8767 12.4009 18.0705 12.2625L20.4175 10.6275C20.5981 10.5002 20.7453 10.3313 20.8467 10.135C20.9481 9.93874 21.0007 9.72092 21 9.50001ZM19.846 9.808L17.5 11.4435C17.4556 11.476 17.4028 11.4952 17.3478 11.4989C17.2929 11.5026 17.238 11.4907 17.1895 11.4645C17.1305 11.4327 17.0815 11.3851 17.048 11.327C17.0145 11.2689 16.9979 11.2025 17 11.1355V7.8645C16.9979 7.79753 17.0145 7.73128 17.0478 7.67317C17.0812 7.61507 17.1301 7.5674 17.189 7.5355C17.2321 7.51245 17.2802 7.50026 17.329 7.5C17.3906 7.50049 17.4504 7.52025 17.5 7.5565L19.8455 9.191C19.8935 9.22691 19.9324 9.27348 19.9591 9.32703C19.9859 9.38058 19.9999 9.43963 19.9999 9.49951C19.9999 9.55938 19.9859 9.61843 19.9591 9.67198C19.9324 9.72553 19.894 9.7721 19.846 9.808Z" fill="#00001B"/>
</g>
<defs>
<clipPath id="clip0_5143_10317">
<rect width="30" height="30" fill="white"/>
</clipPath>
</defs>
</svg>
