<svg width="100" height="100" viewBox="0 0 100 100" fill="none" xmlns="http://www.w3.org/2000/svg">
<g clip-path="url(#clip0_34_2246)">
<path d="M50 26.5625C53.4518 26.5625 56.25 23.7643 56.25 20.3125C56.25 16.8607 53.4518 14.0625 50 14.0625C46.5482 14.0625 43.75 16.8607 43.75 20.3125C43.75 23.7643 46.5482 26.5625 50 26.5625Z" fill="#890C25"/>
<path d="M84.375 34.375C86.9638 34.375 89.0625 32.2763 89.0625 29.6875C89.0625 27.0987 86.9638 25 84.375 25C81.7862 25 79.6875 27.0987 79.6875 29.6875C79.6875 32.2763 81.7862 34.375 84.375 34.375Z" fill="#890C25"/>
<path d="M43.75 6.25H46.875V11.4844C48.8945 10.7552 51.1055 10.7552 53.125 11.4844V6.25H56.25C57.0788 6.25 57.8737 5.92076 58.4597 5.33471C59.0458 4.74866 59.375 3.9538 59.375 3.125C59.375 2.2962 59.0458 1.50134 58.4597 0.915291C57.8737 0.32924 57.0788 0 56.25 0L43.75 0C42.9212 0 42.1263 0.32924 41.5403 0.915291C40.9542 1.50134 40.625 2.2962 40.625 3.125C40.625 3.9538 40.9542 4.74866 41.5403 5.33471C42.1263 5.92076 42.9212 6.25 43.75 6.25Z" fill="#890C25"/>
<path d="M32.8125 89.0625V90.625H67.1875V89.0625C67.1875 87.8193 66.6936 86.627 65.8146 85.7479C64.9355 84.8689 63.7432 84.375 62.5 84.375H37.5C36.2568 84.375 35.0645 84.8689 34.1854 85.7479C33.3064 86.627 32.8125 87.8193 32.8125 89.0625Z" fill="#890C25"/>
<path d="M70.3125 93.75H29.6875C28.8587 93.75 28.0638 94.0792 27.4778 94.6653C26.8917 95.2513 26.5625 96.0462 26.5625 96.875V98.4375C26.5625 98.8519 26.7271 99.2493 27.0201 99.5424C27.3132 99.8354 27.7106 100 28.125 100H71.875C72.2894 100 72.6868 99.8354 72.9799 99.5424C73.2729 99.2493 73.4375 98.8519 73.4375 98.4375V96.875C73.4375 96.0462 73.1083 95.2513 72.5222 94.6653C71.9362 94.0792 71.1413 93.75 70.3125 93.75Z" fill="#890C25"/>
<path d="M56.1133 27.4094L64.1352 31.9937C65.0799 32.533 66.1489 32.8168 67.2367 32.8172H77.2258C76.789 31.8333 76.5633 30.7687 76.5633 29.6922C76.5633 28.6157 76.789 27.5511 77.2258 26.5672H67.2367L59.2195 21.9844C58.8371 24.0955 57.7404 26.0109 56.1133 27.4094Z" fill="#890C25"/>
<path d="M99.8438 58.7047L89.05 35.9062C88.2135 36.5409 87.2566 36.9986 86.2375 37.2516L96.7078 59.3734H72.0422L82.5203 37.2516C81.5012 36.9986 80.5443 36.5409 79.7078 35.9062L68.9062 58.7047C68.8048 58.9131 68.7514 59.1416 68.75 59.3734C68.75 63.5174 70.3962 67.4917 73.3265 70.422C76.2567 73.3522 80.231 74.9984 84.375 74.9984C88.519 74.9984 92.4933 73.3522 95.4235 70.422C98.3538 67.4917 100 63.5174 100 59.3734C99.9986 59.1416 99.9452 58.9131 99.8438 58.7047Z" fill="#890C25"/>
<path d="M15.625 34.375C18.2138 34.375 20.3125 32.2763 20.3125 29.6875C20.3125 27.0987 18.2138 25 15.625 25C13.0362 25 10.9375 27.0987 10.9375 29.6875C10.9375 32.2763 13.0362 34.375 15.625 34.375Z" fill="#890C25"/>
<path d="M31.25 59.3734C31.2486 59.1416 31.1952 58.9131 31.0938 58.7047L20.3 35.9062C19.4612 36.5419 18.5015 36.9996 17.4797 37.2516L27.9578 59.3734H3.29219L13.7703 37.2516C12.7485 36.9996 11.7888 36.5419 10.95 35.9062L0.15625 58.7047C0.0548166 58.9131 0.00142284 59.1416 0 59.3734C0 63.5174 1.6462 67.4917 4.57646 70.422C7.50671 73.3522 11.481 74.9984 15.625 74.9984C19.769 74.9984 23.7433 73.3522 26.6735 70.422C29.6038 67.4917 31.25 63.5174 31.25 59.3734Z" fill="#890C25"/>
<path d="M32.7625 32.8172C33.8503 32.8168 34.9193 32.533 35.8641 31.9937L43.8859 27.4094C42.2589 26.0109 41.1621 24.0955 40.7797 21.9844L32.7625 26.5672H22.7734C23.2102 27.5511 23.4359 28.6157 23.4359 29.6922C23.4359 30.7687 23.2102 31.8333 22.7734 32.8172H32.7625Z" fill="#890C25"/>
<path d="M46.875 29.1406V81.25H53.125V29.1406C51.1055 29.8698 48.8945 29.8698 46.875 29.1406Z" fill="#890C25"/>
</g>
<defs>
<clipPath id="clip0_34_2246">
<rect width="100" height="100" fill="white"/>
</clipPath>
</defs>
</svg>
