<svg width="100" height="100" viewBox="0 0 100 100" fill="none" xmlns="http://www.w3.org/2000/svg">
<g clip-path="url(#clip0_34_2260)">
<path d="M5.48785 47.2141C5.57737 47.3052 5.7193 47.4286 5.90882 47.5794C7.61285 43.6278 10.187 38.6697 14.0782 33.4915C17.629 28.7665 21.2798 25.1826 24.3483 22.5665C22.0604 25.6036 19.3395 29.835 17.0838 35.2697C14.4927 41.5133 13.4266 47.1487 12.9693 51.2673C18.4435 53.1278 25.9903 53.5834 32.6137 46.8036C44.0548 35.0923 30.8709 20.0044 50.9693 6.50035C50.9693 6.50035 25.1346 -0.710944 8.64995 16.1616C-7.83634 33.0358 4.04753 45.7657 5.48785 47.2141Z" fill="#890C25"/>
<path d="M87.7621 60.4129C87.7621 60.4129 105.67 40.1975 98.1581 17.6983C90.6476 -4.80005 74.1065 0.292695 72.1863 0.949953C72.0661 0.991082 71.8911 1.06528 71.6758 1.1685C74.5742 3.29834 79.9734 7.90076 83.4653 15.7096C85.5186 20.3008 86.2436 24.5072 86.5032 27.5016C84.3379 24.0201 81.2694 19.7741 77.0258 15.4701C72.8218 11.2064 68.6758 8.11447 65.2686 5.92495C61.1806 10.0604 57.404 16.704 60.4242 25.7443C65.6379 41.3604 84.8371 36.1419 87.7621 60.4129Z" fill="#890C25"/>
<path d="M78.6168 75.7887C77.0144 70.1645 73.0934 63.6073 63.8281 61.9347C47.8241 59.0452 43.0814 78.6234 20.7031 69.529C20.7031 69.529 29.5394 95.1855 52.5967 99.35C75.6539 103.515 79.2249 86.3597 79.5805 84.3363C79.6023 84.2081 79.6233 84.0202 79.6378 83.7774C75.7031 85.0371 69.9459 86.3855 62.9241 86.3419C57.1023 86.3057 52.2249 85.3234 48.6459 84.3097C52.9322 84.1234 58.4757 83.4726 64.7039 81.6403C70.4007 79.9645 75.0684 77.7726 78.6168 75.7887Z" fill="#890C25"/>
</g>
<defs>
<clipPath id="clip0_34_2260">
<rect width="100" height="100" fill="white"/>
</clipPath>
</defs>
</svg>
