<svg width="100" height="101" viewBox="0 0 100 101" fill="none" xmlns="http://www.w3.org/2000/svg">
<g clip-path="url(#clip0_34_9841)">
<path d="M86.126 64.0938H46.4883L74.5107 92.1162C75.7496 93.3551 77.8014 93.2441 78.8801 91.8635C84.4443 84.7406 87.9336 76.3234 89.0367 67.3625C89.2508 65.6234 87.8783 64.0938 86.126 64.0938Z" fill="#6440FB"/>
<path d="M37.3424 63.2385C36.793 62.689 36.4842 61.9437 36.4842 61.1668V25.1523C36.4842 23.3576 34.8828 21.9703 33.1109 22.2562C14.3254 25.2887 -0.0588036 41.6457 0.00018075 61.2871C0.0650245 82.8906 17.708 100.526 39.3113 100.581C47.7394 100.602 55.7699 97.9922 62.4678 93.1383C63.9219 92.0844 64.0768 89.9726 62.8068 88.7029L37.3424 63.2385Z" fill="#6440FB"/>
<path d="M99.985 55.0086C97.0867 26.3481 74.2301 3.49162 45.5695 0.593187C43.841 0.418382 42.3438 1.78772 42.3438 3.52502V58.2344H97.0531C98.7904 58.2344 100.16 56.7371 99.985 55.0086Z" fill="#6440FB"/>
</g>
<defs>
<clipPath id="clip0_34_9841">
<rect width="100" height="100" fill="white" transform="translate(0 0.578125)"/>
</clipPath>
</defs>
</svg>
