<svg width="100" height="101" viewBox="0 0 100 101" fill="none" xmlns="http://www.w3.org/2000/svg">
<g clip-path="url(#clip0_34_9848)">
<path d="M50 27.1406C53.4518 27.1406 56.25 24.3424 56.25 20.8906C56.25 17.4388 53.4518 14.6406 50 14.6406C46.5482 14.6406 43.75 17.4388 43.75 20.8906C43.75 24.3424 46.5482 27.1406 50 27.1406Z" fill="#6440FB"/>
<path d="M84.375 34.9531C86.9638 34.9531 89.0625 32.8545 89.0625 30.2656C89.0625 27.6768 86.9638 25.5781 84.375 25.5781C81.7862 25.5781 79.6875 27.6768 79.6875 30.2656C79.6875 32.8545 81.7862 34.9531 84.375 34.9531Z" fill="#6440FB"/>
<path d="M43.75 6.82812H46.875V12.0625C48.8945 11.3333 51.1055 11.3333 53.125 12.0625V6.82812H56.25C57.0788 6.82812 57.8737 6.49889 58.4597 5.91283C59.0458 5.32678 59.375 4.53193 59.375 3.70312C59.375 2.87432 59.0458 2.07947 58.4597 1.49342C57.8737 0.907365 57.0788 0.578125 56.25 0.578125L43.75 0.578125C42.9212 0.578125 42.1263 0.907365 41.5403 1.49342C40.9542 2.07947 40.625 2.87432 40.625 3.70312C40.625 4.53193 40.9542 5.32678 41.5403 5.91283C42.1263 6.49889 42.9212 6.82812 43.75 6.82812Z" fill="#6440FB"/>
<path d="M32.8125 89.6406V91.2031H67.1875V89.6406C67.1875 88.3974 66.6936 87.2051 65.8146 86.3261C64.9355 85.447 63.7432 84.9531 62.5 84.9531H37.5C36.2568 84.9531 35.0645 85.447 34.1854 86.3261C33.3064 87.2051 32.8125 88.3974 32.8125 89.6406Z" fill="#6440FB"/>
<path d="M70.3125 94.3281H29.6875C28.8587 94.3281 28.0638 94.6574 27.4778 95.2434C26.8917 95.8295 26.5625 96.6243 26.5625 97.4531V99.0156C26.5625 99.43 26.7271 99.8275 27.0201 100.12C27.3132 100.414 27.7106 100.578 28.125 100.578H71.875C72.2894 100.578 72.6868 100.414 72.9799 100.12C73.2729 99.8275 73.4375 99.43 73.4375 99.0156V97.4531C73.4375 96.6243 73.1083 95.8295 72.5222 95.2434C71.9362 94.6574 71.1413 94.3281 70.3125 94.3281Z" fill="#6440FB"/>
<path d="M56.1133 27.9875L64.1352 32.5719C65.0799 33.1111 66.1489 33.3949 67.2367 33.3953H77.2258C76.789 32.4114 76.5633 31.3468 76.5633 30.2703C76.5633 29.1938 76.789 28.1292 77.2258 27.1453H67.2367L59.2195 22.5625C58.8371 24.6736 57.7404 26.589 56.1133 27.9875Z" fill="#6440FB"/>
<path d="M99.8438 59.2828L89.05 36.4844C88.2135 37.119 87.2566 37.5768 86.2375 37.8297L96.7078 59.9516H72.0422L82.5203 37.8297C81.5012 37.5768 80.5443 37.119 79.7078 36.4844L68.9062 59.2828C68.8048 59.4912 68.7514 59.7198 68.75 59.9516C68.75 64.0956 70.3962 68.0698 73.3265 71.0001C76.2567 73.9304 80.231 75.5766 84.375 75.5766C88.519 75.5766 92.4933 73.9304 95.4235 71.0001C98.3538 68.0698 100 64.0956 100 59.9516C99.9986 59.7198 99.9452 59.4912 99.8438 59.2828Z" fill="#6440FB"/>
<path d="M15.625 34.9531C18.2138 34.9531 20.3125 32.8545 20.3125 30.2656C20.3125 27.6768 18.2138 25.5781 15.625 25.5781C13.0362 25.5781 10.9375 27.6768 10.9375 30.2656C10.9375 32.8545 13.0362 34.9531 15.625 34.9531Z" fill="#6440FB"/>
<path d="M31.25 59.9516C31.2486 59.7198 31.1952 59.4912 31.0938 59.2828L20.3 36.4844C19.4612 37.12 18.5015 37.5778 17.4797 37.8297L27.9578 59.9516H3.29219L13.7703 37.8297C12.7485 37.5778 11.7888 37.12 10.95 36.4844L0.15625 59.2828C0.0548166 59.4912 0.00142284 59.7198 0 59.9516C0 64.0956 1.6462 68.0698 4.57646 71.0001C7.50671 73.9304 11.481 75.5766 15.625 75.5766C19.769 75.5766 23.7433 73.9304 26.6735 71.0001C29.6038 68.0698 31.25 64.0956 31.25 59.9516Z" fill="#6440FB"/>
<path d="M32.7625 33.3953C33.8503 33.3949 34.9193 33.1111 35.8641 32.5719L43.8859 27.9875C42.2589 26.589 41.1621 24.6736 40.7797 22.5625L32.7625 27.1453H22.7734C23.2102 28.1292 23.4359 29.1938 23.4359 30.2703C23.4359 31.3468 23.2102 32.4114 22.7734 33.3953H32.7625Z" fill="#6440FB"/>
<path d="M46.875 29.7188V81.8281H53.125V29.7188C51.1055 30.448 48.8945 30.448 46.875 29.7188Z" fill="#6440FB"/>
</g>
<defs>
<clipPath id="clip0_34_9848">
<rect width="100" height="100" fill="white" transform="translate(0 0.578125)"/>
</clipPath>
</defs>
</svg>
