<svg width="100" height="101" viewBox="0 0 100 101" fill="none" xmlns="http://www.w3.org/2000/svg">
<g clip-path="url(#clip0_34_9862)">
<path d="M5.48785 47.7922C5.57737 47.8833 5.7193 48.0067 5.90882 48.1575C7.61285 44.2059 10.187 39.2478 14.0782 34.0696C17.629 29.3446 21.2798 25.7607 24.3483 23.1446C22.0604 26.1817 19.3395 30.4132 17.0838 35.8478C14.4927 42.0914 13.4266 47.7269 12.9693 51.8454C18.4435 53.7059 25.9903 54.1615 32.6137 47.3817C44.0548 35.6704 30.8709 20.5825 50.9693 7.07847C50.9693 7.07847 25.1346 -0.132819 8.64995 16.7398C-7.83634 33.614 4.04753 46.3438 5.48785 47.7922Z" fill="#6440FB"/>
<path d="M87.7621 60.991C87.7621 60.991 105.67 40.7757 98.1581 18.2765C90.6476 -4.22192 74.1065 0.87082 72.1863 1.52808C72.0661 1.56921 71.8911 1.6434 71.6758 1.74663C74.5742 3.87646 79.9734 8.47888 83.4653 16.2878C85.5186 20.8789 86.2436 25.0853 86.5032 28.0797C84.3379 24.5982 81.2694 20.3523 77.0258 16.0482C72.8218 11.7845 68.6758 8.69259 65.2686 6.50308C61.1806 10.6386 57.404 17.2821 60.4242 26.3224C65.6379 41.9386 84.8371 36.72 87.7621 60.991Z" fill="#6440FB"/>
<path d="M78.6168 76.3668C77.0144 70.7426 73.0934 64.1854 63.8281 62.5128C47.8241 59.6233 43.0814 79.2015 20.7031 70.1072C20.7031 70.1072 29.5394 95.7636 52.5967 99.9281C75.6539 104.093 79.2249 86.9378 79.5805 84.9144C79.6023 84.7862 79.6233 84.5983 79.6378 84.3556C75.7031 85.6152 69.9459 86.9636 62.9241 86.9201C57.1023 86.8838 52.2249 85.9015 48.6459 84.8878C52.9322 84.7015 58.4757 84.0507 64.7039 82.2185C70.4007 80.5427 75.0684 78.3507 78.6168 76.3668Z" fill="#6440FB"/>
</g>
<defs>
<clipPath id="clip0_34_9862">
<rect width="100" height="100" fill="white" transform="translate(0 0.578125)"/>
</clipPath>
</defs>
</svg>
