<svg width="60" height="60" viewBox="0 0 60 60" fill="none" xmlns="http://www.w3.org/2000/svg">
<g clip-path="url(#clip0_34_2108)">
<path d="M23.6914 57.3692C23.6914 58.8245 24.8712 60.0043 26.3265 60.0043C27.7814 60.0043 28.9617 58.8245 28.9617 57.3692V43H23.6914V57.3692Z" fill="#890C25"/>
<path d="M29.8398 57.3692C29.8398 58.8245 31.0193 60.0043 32.475 60.0043C33.9293 60.0043 35.1101 58.8245 35.1101 57.3692V43H29.8398V57.3692Z" fill="#890C25"/>
<path d="M34.9213 6.95278C35.6315 3.90571 33.7371 0.8599 30.6902 0.149783C27.6433 -0.560334 24.5976 1.33415 23.8874 4.38122C23.1773 7.4283 25.0716 10.4741 28.1185 11.1842C31.1655 11.8943 34.2112 9.99986 34.9213 6.95278Z" fill="#890C25"/>
<path d="M40.8184 42.4745L38.7032 31.5866L31.8671 34.6176L30.509 31.5545L27.9579 32.6857L25.0521 26.1316C23.5757 26.0009 22.3411 25.7569 21.2997 25.3906L17.9805 42.4745H40.8184Z" fill="#890C25"/>
<path d="M33.0859 21.0816L35.4399 26.3904C36.1643 25.8502 36.7525 25.2992 37.1902 24.7545L35.155 20.1641L33.0859 21.0816Z" fill="#890C25"/>
<path d="M32.1366 33.9175L39.7574 30.5385L39.1414 29.1484C38.2409 29.9387 37.1721 30.6908 35.9059 31.4149C35.5671 31.6078 35.1839 31.7098 34.7963 31.7098C33.9933 31.7098 33.2471 31.276 32.8497 30.5785C32.8397 30.5609 32.832 30.5422 32.8223 30.5245L30.9922 31.3361L32.1366 33.9175Z" fill="#890C25"/>
<path d="M32.6289 30.0346C32.5306 29.6599 32.529 29.2641 32.6339 28.8802C32.792 28.3028 33.1654 27.8208 33.6856 27.5247C34.1588 27.2551 34.596 26.9781 35.0024 26.6975L31.2465 18.2266L23.9453 21.4638C24.4887 21.569 25.138 21.6544 25.8937 21.7015C26.4919 21.7403 27.0382 22.0104 27.4327 22.4599C27.8274 22.91 28.0229 23.4863 27.9834 24.0837C27.9059 25.2571 26.9249 26.1757 25.7501 26.1757C25.7172 26.1757 25.6837 26.1744 25.6502 26.1731L28.2277 31.9859L32.6289 30.0346Z" fill="#890C25"/>
<path d="M20.0655 16.1482C19.4881 16.7482 18.9716 17.4096 18.5748 18.1461C18.1813 18.8816 17.8944 19.7069 17.8907 20.6295C17.8872 21.3078 18.0672 22.0345 18.4525 22.6678C19.0341 23.6288 19.9877 24.3121 21.1611 24.7751C22.3454 25.2407 23.7981 25.5224 25.6348 25.6449C25.673 25.6476 25.711 25.6489 25.7489 25.6489C26.6435 25.6489 27.3967 24.9537 27.4565 24.0486C27.5187 23.1044 26.8032 22.2891 25.8596 22.2272C23.7286 22.0938 22.4292 21.6775 21.8505 21.312C21.5562 21.131 21.4402 20.9871 21.387 20.8993C21.3359 20.8087 21.32 20.757 21.3171 20.6297C21.3135 20.4643 21.3828 20.1528 21.592 19.7681C21.7957 19.3865 22.1251 18.9469 22.5272 18.5306C22.5285 18.529 22.5301 18.528 22.5314 18.5264C22.8289 18.217 23.166 17.9206 23.5133 17.6552C23.4477 18.119 23.2413 18.5496 22.9101 18.8929C22.7451 19.0632 22.5957 19.2376 22.4613 19.4099L22.1738 20.8904C22.3807 21.0124 22.6893 21.1412 23.0998 21.2614L31.5133 17.5303L32.8717 20.5939L35.4225 19.4626L37.0713 23.1814L36.0834 18.0958C36.3034 18.2695 36.5198 18.4571 36.7288 18.6537C36.9891 18.8987 37.236 19.1593 37.4595 19.4308C37.7393 19.771 37.9833 20.1267 38.167 20.4898L38.1675 20.4903C38.503 21.1288 38.6803 21.7644 38.6803 22.3998C38.6748 23.1347 38.4635 23.9155 37.772 24.8639C37.0795 25.8044 35.8734 26.8832 33.9458 27.982C33.1239 28.4508 32.8377 29.4967 33.3068 30.3181C33.6227 30.8725 34.2011 31.1827 34.7959 31.1827C35.0839 31.1827 35.3756 31.1102 35.6436 30.9574C37.8642 29.6888 39.4577 28.3444 40.5276 26.898C41.5982 25.4589 42.1121 23.8878 42.106 22.3998C42.106 21.1201 41.7453 19.9362 41.2048 18.9079C41.2019 18.9024 41.1998 18.8969 41.1974 18.8916C40.9426 18.4128 40.6488 17.9675 40.3307 17.549C39.5159 16.4755 38.5286 15.5951 37.5341 14.9089C36.9585 14.5149 36.3801 14.1897 35.8112 13.931C35.6937 13.8775 35.5756 13.8227 35.4591 13.7752C35.0539 13.6147 34.6618 13.4848 34.258 13.4026C33.3178 13.1225 31.7043 12.7812 29.3999 12.7812C27.9411 12.7812 26.7571 12.9183 25.8459 13.0898C25.8338 13.0896 25.8219 13.088 25.8098 13.088V13.0875C24.7781 13.1059 23.888 13.4524 22.9897 13.9278C22.9201 13.9647 22.8508 14.0005 22.781 14.0387C22.2479 14.341 21.7219 14.6996 21.2183 15.1023C20.8165 15.424 20.4288 15.7729 20.066 16.1487V16.1482H20.0655Z" fill="#890C25"/>
</g>
<defs>
<clipPath id="clip0_34_2108">
<rect width="60" height="60" fill="white"/>
</clipPath>
</defs>
</svg>
