<svg width="30" height="30" viewBox="0 0 30 30" fill="none" xmlns="http://www.w3.org/2000/svg">
<g clip-path="url(#clip0_5143_10304)">
<path d="M28.125 26.25H1.875C0.84125 26.25 0 25.4088 0 24.375V6.875C0 5.84125 0.84125 5 1.875 5H3.125C3.47 5 3.75 5.28 3.75 5.625C3.75 5.97 3.47 6.25 3.125 6.25H1.875C1.53 6.25 1.25 6.53 1.25 6.875V24.375C1.25 24.72 1.53 25 1.875 25H28.125C28.47 25 28.75 24.72 28.75 24.375V6.875C28.75 6.53 28.47 6.25 28.125 6.25H26.875C26.53 6.25 26.25 5.97 26.25 5.625C26.25 5.28 26.53 5 26.875 5H28.125C29.1588 5 30 5.84125 30 6.875V24.375C30 25.4088 29.1588 26.25 28.125 26.25Z" fill="#00001B"/>
<path d="M19.3756 30H10.6256C10.3731 30 10.1443 29.8475 10.0481 29.6138C9.95056 29.38 10.0043 29.1113 10.1831 28.9325C11.8281 27.2875 11.8493 25.695 11.8493 25.6275C11.8506 25.2838 12.1306 25 12.4756 25H17.5006C17.8443 25 18.1243 25.2775 18.1256 25.6212C18.1268 25.7 18.1756 27.2913 19.8181 28.9325C19.9968 29.1113 20.0506 29.38 19.9531 29.6138C19.8568 29.8475 19.6281 30 19.3756 30ZM11.9643 28.75H18.0356C17.3356 27.7488 17.0581 26.8288 16.9481 26.25H13.0356C12.9293 26.8313 12.6593 27.75 11.9643 28.75Z" fill="#00001B"/>
<path d="M29.375 22.5H0.625C0.28 22.5 0 22.22 0 21.875C0 21.53 0.28 21.25 0.625 21.25H29.375C29.72 21.25 30 21.53 30 21.875C30 22.22 29.72 22.5 29.375 22.5Z" fill="#00001B"/>
<path d="M15 12.5C13.2112 12.5 11.4225 11.97 9.64625 10.9113C9.09375 10.58 8.75 9.965 8.75 9.30375V5.625C8.75 5.28 9.03 5 9.375 5C9.72 5 10 5.28 10 5.625V9.30375C10 9.52375 10.1125 9.73375 10.2875 9.8375C13.4587 11.7287 16.5413 11.7287 19.7125 9.8375C19.8875 9.73375 20 9.52375 20 9.30375V5.625C20 5.28 20.28 5 20.625 5C20.97 5 21.25 5.28 21.25 5.625V9.30375C21.25 9.965 20.9063 10.58 20.3538 10.9113C18.5775 11.97 16.7887 12.5 15 12.5Z" fill="#00001B"/>
<path d="M15 8.75C14.9113 8.75 14.8213 8.73125 14.7388 8.6925L6.61375 4.9425C6.39125 4.84 6.25 4.61875 6.25 4.375C6.25 4.13125 6.39125 3.91 6.61375 3.8075L14.7388 0.0574994C14.905 -0.0200006 15.0962 -0.0200006 15.2625 0.0574994L23.3875 3.8075C23.6087 3.91 23.75 4.13125 23.75 4.375C23.75 4.61875 23.6087 4.84 23.3862 4.9425L15.2612 8.6925C15.1787 8.73125 15.0887 8.75 15 8.75ZM8.36625 4.375L15 7.43625L21.6337 4.375L15 1.31375L8.36625 4.375Z" fill="#00001B"/>
</g>
<defs>
<clipPath id="clip0_5143_10304">
<rect width="30" height="30" fill="white"/>
</clipPath>
</defs>
</svg>
