<svg width="60" height="60" viewBox="0 0 60 60" fill="none" xmlns="http://www.w3.org/2000/svg">
<path d="M6.32422 50.5922C8.31795 52.4224 10.8098 53.62 13.4844 54.0336C13.7762 52.5659 13.7222 51.0504 13.3268 49.6072C12.9313 48.164 12.2053 46.8327 11.2061 45.7188L6.32422 50.5922Z" fill="#890C25"/>
<path d="M31.5345 48.5391C30.7481 48.5391 29.9794 48.7723 29.3256 49.2092C28.6717 49.6461 28.1621 50.2671 27.8612 50.9936C27.5603 51.7202 27.4816 52.5196 27.635 53.2909C27.7884 54.0621 28.1671 54.7706 28.7232 55.3267C29.2793 55.8827 29.9877 56.2614 30.759 56.4148C31.5303 56.5682 32.3297 56.4894 33.0562 56.1885C33.7828 55.8876 34.4037 55.3779 34.8406 54.7241C35.2775 54.0702 35.5107 53.3015 35.5107 52.5151C35.5095 51.4609 35.0902 50.4503 34.3448 49.7049C33.5994 48.9595 32.5887 48.5402 31.5345 48.5391Z" fill="#890C25"/>
<path d="M29.3315 39.506C28.6684 39.6288 27.9955 39.6908 27.3211 39.6911C24.6344 39.6913 22.0436 38.6932 20.0514 36.8906L16.4492 40.4865L25.7451 49.766C28.0815 47.2418 29.3753 43.9263 29.3662 40.4868C29.3663 40.1579 29.3547 39.831 29.3315 39.506Z" fill="#890C25"/>
<path d="M12.0352 44.8899C13.1482 46.135 13.9624 47.6176 14.4157 49.2249C14.8691 50.8323 14.9497 52.5219 14.6514 54.165C16.5151 54.2987 18.3865 54.0507 20.1511 53.4363C21.9157 52.8219 23.5364 51.8539 24.9141 50.5916L15.6183 41.3125L12.0352 44.8899Z" fill="#890C25"/>
<path d="M40.3103 54.5497C40.2757 54.5734 40.2462 54.6038 40.2233 54.639C40.2005 54.6742 40.1848 54.7135 40.1772 54.7547C40.1696 54.796 40.1702 54.8383 40.1789 54.8794C40.1877 54.9204 40.2044 54.9593 40.2283 54.9938C40.5291 55.428 40.9897 55.7253 41.5093 55.8208C42.0288 55.9163 42.565 55.8021 43.0006 55.5032L44.8497 54.2318C45.1011 54.058 45.3093 53.8287 45.458 53.5617L43.3825 52.4375L40.3103 54.5497Z" fill="#890C25"/>
<path d="M42.2249 51.8087L38.8711 49.9922L40.8005 52.7882L42.2249 51.8087Z" fill="#890C25"/>
<path d="M51.5844 36.9049L38.1839 37.7702L37.5781 40.5944L50.9766 41.5781C51.3339 41.6031 51.6898 41.5134 51.9925 41.322L55.4751 39.1021L53.098 37.3417C52.6623 37.0191 52.125 36.864 51.5844 36.9049Z" fill="#890C25"/>
<path d="M54.2335 10.1043C53.6556 9.0033 52.7822 8.08522 51.7115 7.45312L50.8516 9.31523L53.9413 10.7367L54.2335 10.1043Z" fill="#890C25"/>
<path d="M49.4009 49.1082L36.7344 44.5156L36.1602 47.1932L47.9315 53.5692C48.4402 53.8456 49.0359 53.9154 49.5948 53.7641L52.4995 52.9823L50.1917 49.7116C49.9964 49.434 49.7203 49.2233 49.4009 49.1082Z" fill="#890C25"/>
<path d="M51.0935 42.7535C51.0254 42.7535 50.9574 42.751 50.8895 42.7461L37.3287 41.75L36.9844 43.3555L49.8025 48.0029C49.9272 48.0485 50.0486 48.1028 50.1657 48.1653L55.0011 46.1221L51.5186 42.7203C51.3779 42.742 51.2358 42.7531 51.0935 42.7535Z" fill="#890C25"/>
<path d="M33.3359 46.4297L35.2889 37.2907L37.0059 37.6577L35.0529 46.7966L33.3359 46.4297Z" fill="#890C25"/>
<path d="M38.8763 36.549L41.2046 31.5062C40.8458 31.3904 40.4942 31.2534 40.1516 31.0961C39.8089 30.9376 39.4757 30.7594 39.1536 30.5625L36.4805 36.3516L37.7461 36.622L38.8763 36.549Z" fill="#890C25"/>
<path d="M32.5166 35.9886L32.3603 35.7619C31.7642 34.8994 31.5088 33.8468 31.6431 32.807C31.7405 32.0541 31.5555 31.2918 31.1237 30.6673L15.6655 8.2675C15.1809 7.56833 14.4391 7.08952 13.6024 6.9358C12.7657 6.78207 11.9022 6.96594 11.2007 7.44719C10.8539 7.68536 10.5574 7.98959 10.3283 8.34249C10.0992 8.69538 9.94202 9.08999 9.86565 9.50373C9.78928 9.91747 9.79526 10.3422 9.88327 10.7536C9.97127 11.1651 10.1396 11.5551 10.3785 11.9014L20.3629 26.3686C22.7838 27.1777 24.9566 28.5947 26.673 30.484C28.3894 32.3733 29.5921 34.6716 30.1658 37.1589C30.8202 36.5502 31.6366 36.1438 32.5166 35.9886ZM12.4192 10.8712C12.3552 10.9138 12.2833 10.9434 12.2078 10.9583C12.1323 10.9732 12.0547 10.9731 11.9792 10.9579C11.9038 10.9428 11.832 10.913 11.7681 10.8701C11.7042 10.8272 11.6494 10.7722 11.6067 10.7082L11.4734 10.507C11.4307 10.4429 11.4011 10.3711 11.3862 10.2956C11.3714 10.2201 11.3715 10.1424 11.3866 10.067C11.4018 9.99152 11.4316 9.91979 11.4745 9.85589C11.5173 9.79198 11.5723 9.73714 11.6364 9.69449C11.7004 9.65185 11.7723 9.62224 11.8478 9.60735C11.9233 9.59246 12.0009 9.59259 12.0764 9.60773C12.1518 9.62287 12.2236 9.65271 12.2875 9.69557C12.3514 9.73843 12.4062 9.79345 12.4489 9.8575L12.5827 10.0587C12.6253 10.1228 12.6549 10.1946 12.6697 10.2701C12.6846 10.3457 12.6844 10.4234 12.6692 10.4988C12.6541 10.5743 12.6242 10.646 12.5813 10.7099C12.5384 10.7738 12.4833 10.8286 12.4192 10.8712ZM18.6184 20.1843C18.5544 20.2269 18.4826 20.2566 18.4071 20.2714C18.3316 20.2863 18.2539 20.2862 18.1784 20.2711C18.103 20.2559 18.0313 20.2261 17.9674 20.1832C17.9034 20.1404 17.8486 20.0853 17.806 20.0213L12.7944 12.4926C12.7505 12.4286 12.7198 12.3564 12.704 12.2804C12.6882 12.2044 12.6876 12.126 12.7024 12.0498C12.7171 11.9736 12.7469 11.9011 12.7899 11.8365C12.8329 11.7718 12.8884 11.7164 12.953 11.6734C13.0176 11.6304 13.0902 11.6006 13.1664 11.5859C13.2426 11.5712 13.321 11.5717 13.397 11.5875C13.473 11.6033 13.5451 11.6341 13.6091 11.678C13.6732 11.7219 13.7278 11.7781 13.7699 11.8434L18.7815 19.372C18.8676 19.5013 18.8989 19.6595 18.8683 19.8119C18.8378 19.9642 18.748 20.0982 18.6187 20.1843H18.6184Z" fill="#890C25"/>
<path d="M32.1745 46.2392L34.139 37.0806C32.4243 36.904 30.8262 37.6452 30.4476 38.843C30.5075 39.3883 30.5376 39.9364 30.5378 40.485C30.5397 42.0672 30.2896 43.6396 29.7969 45.1431C30.4508 46.0097 31.5302 46.1753 32.1745 46.2392Z" fill="#890C25"/>
<path d="M45.9456 17.1482L42.8559 15.7266L41.6719 18.291L44.7615 19.7126L45.9456 17.1482Z" fill="#890C25"/>
<path d="M11.2044 44.0601L14.7882 40.4829L5.49224 31.2031C3.15584 33.7274 1.86205 37.0429 1.87114 40.4825C1.87114 40.8065 1.88243 41.1286 1.90501 41.4488C3.5516 41.1494 5.24478 41.2289 6.85606 41.6813C8.46735 42.1338 9.95441 42.9473 11.2044 44.0601Z" fill="#890C25"/>
<path d="M2.03516 42.6242C2.45048 45.2967 3.65385 47.7845 5.49125 49.7692L10.3736 44.8954C9.25462 43.8969 7.91892 43.172 6.47187 42.7778C5.02482 42.3837 3.506 42.3311 2.03516 42.6242Z" fill="#890C25"/>
<path d="M19.2228 36.064C18.1007 34.8285 17.2802 33.3499 16.8256 31.7441C16.371 30.1382 16.2947 28.4489 16.6026 26.8086C16.2756 26.7852 15.948 26.7735 15.62 26.7735C12.1786 26.7675 8.86067 28.0552 6.32422 30.3811L15.62 39.6601L19.2228 36.064Z" fill="#890C25"/>
<path d="M24.9155 30.3766C22.9256 28.5498 20.4393 27.3532 17.7702 26.9375C17.4829 28.4022 17.5395 29.9136 17.9356 31.3527C18.3317 32.7918 19.0564 34.1193 20.0528 35.2306L24.9155 30.3766Z" fill="#890C25"/>
<path d="M29.1958 38.3335C28.7784 35.6664 27.5761 33.1841 25.7422 31.2031L20.8789 36.0574C21.9953 37.0533 23.3272 37.777 24.7701 38.1719C26.2131 38.5668 27.7279 38.6221 29.1958 38.3335Z" fill="#890C25"/>
<path d="M38.3151 22.7648L38.4403 22.4937L38.1992 22.3828C38.2353 22.5112 38.2739 22.6386 38.3151 22.7648Z" fill="#890C25"/>
<path d="M47.6875 27.0801C47.8116 27.0287 47.9353 26.9744 48.0587 26.9171L47.8146 26.8047L47.6875 27.0801Z" fill="#890C25"/>
<path d="M37.9139 17.8516C37.7761 18.882 37.7735 19.926 37.9063 20.957L38.9305 21.4282L40.1141 18.8638L37.9139 17.8516Z" fill="#890C25"/>
<path d="M42.5195 27.3573C43.6978 27.757 44.9635 27.8233 46.1771 27.549L46.7482 26.3121L43.6586 24.8906L42.5195 27.3573Z" fill="#890C25"/>
<path d="M39.5073 22.9844L38.9375 24.2184C39.5148 25.32 40.3877 26.2388 41.4583 26.8717L42.5969 24.4059L39.5073 22.9844Z" fill="#890C25"/>
<path d="M48.3047 25.7363L49.3274 26.2069C50.1975 25.6364 50.9907 24.9563 51.6875 24.1836L49.4889 23.1719L48.3047 25.7363Z" fill="#890C25"/>
<path d="M45.3364 21.2656L44.1523 23.83L47.242 25.2516L48.4262 22.6872L45.3364 21.2656Z" fill="#890C25"/>
<path d="M52.5299 4.28907C51.3929 3.76879 50.1563 3.50223 48.9059 3.5079C44.2477 3.5079 39.2826 7.0138 36.697 12.6134C34.8361 16.6433 34.5301 21.017 35.8568 24.6134C36.7935 27.1514 38.4475 29.0262 40.6403 30.0351C46.0933 32.5442 53.1956 28.8094 56.4733 21.7109C58.3341 17.6808 58.6402 13.3072 57.3134 9.71087C56.3769 7.17271 54.7227 5.29782 52.5299 4.28907ZM55.1138 21.0867C52.899 25.8825 48.6359 28.8825 44.6275 28.8825C43.5439 28.8874 42.4722 28.6563 41.4869 28.2053C39.5791 27.3275 38.1431 25.7046 37.3341 23.5123C36.1987 20.4354 36.4619 16.6902 38.0566 13.2369C40.8679 7.14845 46.9816 3.95497 51.6835 6.11837C53.5913 6.9961 55.0273 8.61892 55.8364 10.8113C56.9717 13.8881 56.7084 17.6333 55.1138 21.0866V21.0867Z" fill="#890C25"/>
<path d="M54.5156 12.2891L53.332 14.8536L55.329 15.7723C55.4136 14.701 55.346 13.6231 55.1283 12.5708L54.5156 12.2891Z" fill="#890C25"/>
<path d="M51.6562 18.4863L54.4102 19.7532C54.7588 18.863 55.0163 17.9398 55.1789 16.9977L52.8405 15.9219L51.6562 18.4863Z" fill="#890C25"/>
<path d="M49.9805 22.1107L52.4617 23.2522C53.034 22.4937 53.5299 21.6804 53.942 20.8242L51.1646 19.5469L49.9805 22.1107Z" fill="#890C25"/>
<path d="M47.6215 13.5154L44.5317 12.0938L43.3477 14.6582L46.4373 16.0798L47.6215 13.5154Z" fill="#890C25"/>
<path d="M53.4495 11.8043L50.3598 10.3828L49.1758 12.9472L52.2654 14.3687L53.4495 11.8043Z" fill="#890C25"/>
<path d="M39.9961 21.916L43.0857 23.3375L44.2698 20.773L41.1802 19.3516L39.9961 21.916Z" fill="#890C25"/>
<path d="M41.7907 15.2372L39.0168 13.9609C38.6319 14.8292 38.3332 15.7332 38.125 16.6599L40.6067 17.8016L41.7907 15.2372Z" fill="#890C25"/>
<path d="M51.7737 15.4293L48.6841 14.0078L47.5 16.5722L50.5895 17.9937L51.7737 15.4293Z" fill="#890C25"/>
<path d="M50.6483 6.96588C49.965 6.72809 49.2463 6.60756 48.5228 6.6094C48.0074 6.61131 47.4936 6.6672 46.9898 6.77615L46.6992 7.40557L49.7889 8.82705L50.6483 6.96588Z" fill="#890C25"/>
<path d="M50.1018 19.0543L47.0122 17.6328L45.8281 20.1972L48.9178 21.6187L50.1018 19.0543Z" fill="#890C25"/>
<path d="M43.4656 11.6026L41.1361 10.5312C40.5223 11.2652 39.9846 12.0595 39.5312 12.9021L42.2815 14.1677L43.4656 11.6026Z" fill="#890C25"/>
<path d="M45.1432 7.9741L44.5366 7.69531C43.5965 8.21629 42.7335 8.86574 41.9727 9.62492L43.959 10.539L45.1432 7.9741Z" fill="#890C25"/>
<path d="M48.1131 12.4546L49.2971 9.89023L46.2075 8.46875L45.0234 11.0332L48.1131 12.4546Z" fill="#890C25"/>
</svg>
