<svg width="103" height="30" viewBox="0 0 103 30" fill="none" xmlns="http://www.w3.org/2000/svg">
<path d="M38.52 22.18C38.04 22.18 37.6933 22.1133 37.48 21.98C37.2667 21.8333 37.1333 21.64 37.08 21.4C37.04 21.16 37.02 20.9133 37.02 20.66V9.72C37.02 9.13333 37.1333 8.73333 37.36 8.52C37.5867 8.30667 37.9933 8.2 38.58 8.2H46.14C46.4067 8.2 46.6533 8.22667 46.88 8.28C47.1067 8.32 47.2933 8.44667 47.44 8.66C47.5867 8.87333 47.66 9.23333 47.66 9.74C47.66 10.22 47.5867 10.5667 47.44 10.78C47.2933 10.9933 47.1 11.1267 46.86 11.18C46.6333 11.22 46.3867 11.24 46.12 11.24H40.06V13.82H44.18C44.4467 13.82 44.68 13.84 44.88 13.88C45.0933 13.92 45.26 14.0333 45.38 14.22C45.5 14.4067 45.56 14.72 45.56 15.16C45.56 15.5733 45.5 15.8733 45.38 16.06C45.26 16.2467 45.0933 16.36 44.88 16.4C44.6667 16.44 44.42 16.46 44.14 16.46H40.06V19.14H46.14C46.4067 19.14 46.6533 19.1667 46.88 19.22C47.1067 19.2733 47.2933 19.4067 47.44 19.62C47.5867 19.82 47.66 20.1733 47.66 20.68C47.66 21.16 47.5867 21.5067 47.44 21.72C47.2933 21.9333 47.1 22.06 46.86 22.1C46.6333 22.1533 46.3867 22.18 46.12 22.18H38.52ZM53.307 22.16C52.707 22.16 52.127 22.0333 51.567 21.78C51.0204 21.5133 50.5337 21.1467 50.107 20.68C49.6804 20.2133 49.3404 19.68 49.087 19.08C48.847 18.4667 48.727 17.82 48.727 17.14C48.727 16.4867 48.847 15.8667 49.087 15.28C49.3404 14.68 49.6804 14.1533 50.107 13.7C50.547 13.2333 51.0404 12.8667 51.587 12.6C52.1337 12.3333 52.707 12.2 53.307 12.2C53.947 12.2 54.507 12.3333 54.987 12.6C55.4804 12.8533 55.8937 13.2067 56.227 13.66C56.5604 14.1133 56.807 14.64 56.967 15.24C57.1404 15.84 57.2337 16.4667 57.247 17.12C57.2604 17.8 57.1804 18.44 57.007 19.04C56.847 19.64 56.6004 20.1733 56.267 20.64C55.9337 21.1067 55.5204 21.48 55.027 21.76C54.547 22.0267 53.9737 22.16 53.307 22.16ZM53.707 19.2C54.067 19.2 54.387 19.1133 54.667 18.94C54.9604 18.7533 55.1937 18.5067 55.367 18.2C55.5537 17.8933 55.647 17.5533 55.647 17.18C55.647 16.7933 55.5604 16.4533 55.387 16.16C55.2137 15.8533 54.9804 15.6133 54.687 15.44C54.3937 15.2667 54.0604 15.18 53.687 15.18C53.327 15.18 52.9937 15.2667 52.687 15.44C52.3937 15.6133 52.1604 15.8533 51.987 16.16C51.827 16.4533 51.747 16.7933 51.747 17.18C51.747 17.5533 51.8337 17.8933 52.007 18.2C52.1804 18.5067 52.4204 18.7533 52.727 18.94C53.0337 19.1133 53.3604 19.2 53.707 19.2ZM57.207 22.18C56.7537 22.18 56.4137 22.1067 56.187 21.96C55.9604 21.8133 55.8137 21.5867 55.747 21.28V9.16C55.747 8.90667 55.7604 8.66667 55.787 8.44C55.827 8.2 55.947 8.00667 56.147 7.86C56.347 7.71333 56.6937 7.64 57.187 7.64C57.6804 7.64 58.027 7.71333 58.227 7.86C58.4404 7.99333 58.567 8.17333 58.607 8.4C58.6604 8.62667 58.687 8.87333 58.687 9.14V20.66C58.687 20.9133 58.6604 21.16 58.607 21.4C58.567 21.6267 58.4404 21.8133 58.227 21.96C58.027 22.1067 57.687 22.18 57.207 22.18ZM64.6356 22.16C64.0223 22.16 63.4423 22.04 62.8956 21.8C62.3623 21.56 61.8956 21.2267 61.4956 20.8C61.0956 20.36 60.7823 19.8467 60.5556 19.26C60.3423 18.66 60.2356 18.0067 60.2356 17.3V13.68C60.2356 13.4133 60.2623 13.1667 60.3156 12.94C60.369 12.7133 60.4956 12.5267 60.6956 12.38C60.909 12.2333 61.2623 12.16 61.7556 12.16C62.249 12.16 62.5956 12.2333 62.7956 12.38C63.009 12.5267 63.1356 12.72 63.1756 12.96C63.229 13.1867 63.2556 13.4333 63.2556 13.7V17.3C63.2556 17.6867 63.3223 18.0267 63.4556 18.32C63.6023 18.6 63.809 18.8133 64.0756 18.96C64.3556 19.1067 64.6823 19.18 65.0556 19.18C65.4423 19.18 65.769 19.1067 66.0356 18.96C66.3156 18.8 66.529 18.58 66.6756 18.3C66.8356 18.02 66.9156 17.6867 66.9156 17.3V13.66C66.9156 13.3933 66.9423 13.1467 66.9956 12.92C67.049 12.6933 67.1756 12.5133 67.3756 12.38C67.589 12.2333 67.9423 12.16 68.4356 12.16C68.929 12.16 69.2756 12.2333 69.4756 12.38C69.689 12.5267 69.8156 12.72 69.8556 12.96C69.909 13.1867 69.9356 13.4267 69.9356 13.68V20.72C69.9356 20.9733 69.909 21.2133 69.8556 21.44C69.8156 21.6533 69.689 21.8267 69.4756 21.96C69.2623 22.0933 68.9156 22.16 68.4356 22.16C68.0756 22.16 67.7956 22.12 67.5956 22.04C67.3956 21.96 67.249 21.86 67.1556 21.74C67.0623 21.62 67.0023 21.4933 66.9756 21.36C66.9623 21.2267 66.9556 21.1067 66.9556 21L67.2156 20.78C67.1756 20.8333 67.089 20.9333 66.9556 21.08C66.8223 21.2267 66.6423 21.3867 66.4156 21.56C66.2023 21.72 65.949 21.86 65.6556 21.98C65.3623 22.1 65.0223 22.16 64.6356 22.16ZM76.467 22.26C75.8804 22.26 75.2804 22.1533 74.667 21.94C74.067 21.7133 73.507 21.3867 72.987 20.96C72.4804 20.52 72.0737 19.9867 71.767 19.36C71.4604 18.72 71.307 17.9867 71.307 17.16C71.307 16.3333 71.4604 15.6067 71.767 14.98C72.0737 14.3533 72.4804 13.8267 72.987 13.4C73.4937 12.9733 74.047 12.6533 74.647 12.44C75.2604 12.2133 75.8537 12.1 76.427 12.1C76.9204 12.1 77.3604 12.16 77.747 12.28C78.147 12.3867 78.4804 12.52 78.747 12.68C79.027 12.84 79.227 12.98 79.347 13.1C79.5737 13.2733 79.7737 13.4467 79.947 13.62C80.1204 13.7933 80.2004 14.02 80.187 14.3C80.1737 14.4467 80.127 14.6 80.047 14.76C79.967 14.9067 79.867 15.06 79.747 15.22C79.347 15.78 78.947 16.0333 78.547 15.98C78.347 15.94 78.1604 15.8733 77.987 15.78C77.827 15.6867 77.667 15.5933 77.507 15.5C77.3604 15.3933 77.2004 15.3067 77.027 15.24C76.8537 15.1733 76.6537 15.14 76.427 15.14C76.0404 15.14 75.6937 15.2267 75.387 15.4C75.0804 15.5733 74.8337 15.8133 74.647 16.12C74.4737 16.4267 74.387 16.78 74.387 17.18C74.387 17.5667 74.4737 17.9133 74.647 18.22C74.8337 18.5267 75.0737 18.7733 75.367 18.96C75.6737 19.1333 76.0137 19.22 76.387 19.22C76.6137 19.22 76.807 19.1933 76.967 19.14C77.1404 19.0867 77.287 19.0267 77.407 18.96C77.527 18.88 77.6204 18.82 77.687 18.78C77.847 18.6733 78.0004 18.58 78.147 18.5C78.2937 18.4067 78.447 18.36 78.607 18.36C78.7937 18.36 78.987 18.4333 79.187 18.58C79.387 18.7133 79.607 18.9333 79.847 19.24C80.0604 19.52 80.1804 19.78 80.207 20.02C80.247 20.26 80.1937 20.4867 80.047 20.7C79.9004 20.9133 79.6737 21.12 79.367 21.32C79.2604 21.4133 79.067 21.5333 78.787 21.68C78.5204 21.8267 78.187 21.96 77.787 22.08C77.4004 22.2 76.9604 22.26 76.467 22.26ZM86.2294 22.26C85.9094 22.26 85.636 22.2 85.4094 22.08C85.1827 21.96 85.0027 21.7733 84.8694 21.52L81.2694 14.34C81.0294 13.86 80.956 13.4667 81.0494 13.16C81.156 12.84 81.4627 12.5533 81.9694 12.3C82.476 12.06 82.876 11.98 83.1694 12.06C83.476 12.1267 83.7494 12.4333 83.9894 12.98L86.2294 18.2L88.4694 13.06C88.7227 12.4867 88.996 12.1533 89.2894 12.06C89.5827 11.9667 89.996 12.0533 90.5294 12.32C91.076 12.5733 91.376 12.8733 91.4294 13.22C91.496 13.5533 91.416 13.94 91.1894 14.38L87.6094 21.52C87.4894 21.7733 87.316 21.96 87.0894 22.08C86.8627 22.2 86.576 22.26 86.2294 22.26ZM97.073 22.36C96.1396 22.36 95.333 22.2067 94.653 21.9C93.9863 21.5933 93.4396 21.1933 93.013 20.7C92.5863 20.1933 92.2663 19.6333 92.053 19.02C91.853 18.4067 91.753 17.7933 91.753 17.18C91.753 16.18 91.9796 15.2933 92.433 14.52C92.8863 13.7467 93.513 13.14 94.313 12.7C95.113 12.2467 96.033 12.02 97.073 12.02C97.8463 12.02 98.513 12.1467 99.073 12.4C99.6463 12.64 100.113 12.96 100.473 13.36C100.846 13.7467 101.12 14.1667 101.293 14.62C101.48 15.0733 101.573 15.5067 101.573 15.92C101.573 16.6533 101.393 17.2 101.033 17.56C100.686 17.9067 100.24 18.08 99.693 18.08H94.933C94.9596 18.4267 95.0796 18.72 95.293 18.96C95.5196 19.2 95.7996 19.3867 96.133 19.52C96.4663 19.6533 96.8196 19.72 97.193 19.72C97.513 19.72 97.793 19.7067 98.033 19.68C98.273 19.64 98.4796 19.5933 98.653 19.54C98.8263 19.4733 98.9863 19.4133 99.133 19.36C99.2796 19.2933 99.4063 19.24 99.513 19.2C99.633 19.16 99.7463 19.1333 99.853 19.12C100.053 19.1067 100.233 19.1667 100.393 19.3C100.566 19.42 100.72 19.6067 100.853 19.86C100.946 20.0067 101.006 20.1467 101.033 20.28C101.073 20.4133 101.093 20.5467 101.093 20.68C101.093 21 100.926 21.2867 100.593 21.54C100.273 21.7933 99.813 21.9933 99.213 22.14C98.6263 22.2867 97.913 22.36 97.073 22.36ZM94.933 16.44H98.093C98.3063 16.44 98.4596 16.4067 98.553 16.34C98.6596 16.26 98.713 16.1133 98.713 15.9C98.713 15.66 98.6396 15.4533 98.493 15.28C98.3463 15.0933 98.1463 14.9533 97.893 14.86C97.653 14.7533 97.373 14.7 97.053 14.7C96.6396 14.7 96.273 14.78 95.953 14.94C95.633 15.1 95.3796 15.3133 95.193 15.58C95.0196 15.8467 94.933 16.1333 94.933 16.44Z" fill="#00001B"/>
<circle cx="15" cy="15" r="15" fill="#FF9B24"/>
<g clip-path="url(#clip0_34_2596)">
<path fill-rule="evenodd" clip-rule="evenodd" d="M11.5404 14.5352C11.8316 15.113 12.122 15.6914 12.4003 16.2755L13.0261 17.5889C12.4743 17.6074 11.9219 17.612 11.3709 17.6445C11.1606 17.6569 10.9514 17.6879 10.7438 17.7235C10.447 17.7742 10.1394 17.8567 9.85534 17.9735C9.48467 18.1259 8.9729 18.4628 8.98366 18.9283C8.99255 19.3851 9.31798 19.7112 9.6317 20.0031C9.90848 20.2607 10.3103 20.4403 10.6516 20.6087C11.3514 20.954 12.0834 21.2476 12.814 21.5204C13.3198 21.7092 13.8275 21.8548 14.3558 21.9663C14.6025 22.0184 14.9959 22.0309 15.1214 21.7514C15.2123 21.5468 15.1397 21.319 15.0586 21.1244C14.9551 20.8758 14.8443 20.6294 14.7337 20.3838L14.2796 19.3757C14.9782 19.3881 15.6768 19.4099 16.3755 19.413C16.932 19.4156 17.4823 19.3837 18.0333 19.3043C18.5506 19.2296 19.1661 19.0116 19.4359 18.5281C19.7542 17.9575 19.4412 17.2337 19.1358 16.7266C18.9954 16.4934 18.873 16.248 18.7143 16.0268L17.6448 14.536C17.8346 14.2668 18.0325 14.0029 18.2145 13.7281C18.4845 13.3203 18.7499 12.909 19.0001 12.4886C19.1741 12.196 19.3359 11.8958 19.4865 11.5904C19.7739 11.008 20.261 10.0506 19.6666 9.49063C19.3038 9.14894 18.7341 9.12305 18.2655 9.18927C17.774 9.25873 17.2835 9.33733 16.7952 9.42665C15.5197 9.65996 14.2401 10.0815 12.9958 10.4629C12.5509 10.5992 12.117 10.7691 11.6805 10.9298C11.3865 11.0381 11.0975 11.193 10.8179 11.3435C10.6507 11.4335 10.4843 11.5611 10.3837 11.7248C10.324 11.8221 10.343 11.9648 10.3632 12.0714C10.4025 12.2792 10.4906 12.4744 10.578 12.6655L11.5404 14.5352ZM15.87 11.2524C16.3268 11.1646 16.7838 11.0779 17.242 10.998C17.3869 10.9727 17.7487 10.8867 17.8316 11.0604C17.9479 11.304 17.6298 11.7184 17.5183 11.9217C17.423 12.0956 17.3218 12.2664 17.223 12.4383L16.697 13.3539L15.895 12.4587L15.1054 11.6817L14.9008 11.5126L14.8318 11.461C15.1778 11.3915 15.5233 11.319 15.87 11.2524ZM14.4358 12.0211C14.445 12.0203 14.4538 12.029 14.4595 12.0358L14.4861 12.069C14.5366 12.1443 14.5826 12.2214 14.6302 12.2985C14.8427 12.643 15.0551 12.9877 15.2678 13.3321C15.4088 13.5602 15.5504 13.788 15.6913 14.0162L15.9697 14.4674L15.9939 14.5082C15.7932 14.8383 15.5975 15.1715 15.3918 15.4984C15.2311 15.7538 15.0625 16.0043 14.8948 16.255C14.8225 16.3627 14.7069 16.5137 14.5588 16.4956C14.2723 16.4604 14.1789 16.0118 14.1472 15.7832C14.1302 15.6607 14.115 15.5378 14.1063 15.4144C14.0904 15.1917 14.0681 14.9685 14.0735 14.7453C14.081 14.4377 14.0829 14.13 14.0958 13.8227C14.1036 13.6391 14.1087 13.4545 14.1357 13.2727C14.1729 13.0217 14.21 12.7708 14.2472 12.5198C14.263 12.413 14.2969 12.309 14.3288 12.206C14.3456 12.1615 14.3638 12.1186 14.3845 12.0757C14.3845 12.0757 14.4115 12.0232 14.4358 12.0211ZM14.0174 19.8165C14.1624 20.1689 14.3138 20.529 14.4113 20.9017C14.4238 20.9496 14.4329 20.9985 14.4393 21.0475C14.4446 21.0876 14.4453 21.1284 14.4466 21.1689C14.4471 21.18 14.4311 21.1911 14.4213 21.1924C14.4012 21.1951 14.381 21.1836 14.3645 21.1736C13.9393 20.919 13.5155 20.6618 13.0894 20.4087L11.4244 19.4204L11.3731 19.3885L11.4129 19.3802L11.5742 19.3625C11.886 19.3546 12.1976 19.3329 12.5095 19.3385L13.8301 19.3626C13.8925 19.5139 13.9551 19.6651 14.0174 19.8165ZM17.4227 17.5673C17.356 17.6258 17.2501 17.6413 17.1651 17.6522C17.0569 17.666 16.9482 17.6817 16.8392 17.682C16.4629 17.6828 16.0866 17.6899 15.7105 17.6844C15.4514 17.6807 15.1924 17.6655 14.9336 17.6542L13.4275 17.589C13.3401 17.4015 13.2528 17.2137 13.1652 17.0263L12.0448 14.6298C11.7996 14.0776 11.5487 13.5278 11.3093 12.9731C11.2642 12.8685 11.2292 12.7598 11.1916 12.6524C11.1539 12.5447 11.1019 12.3974 11.1583 12.2865C11.2077 12.1909 11.3243 12.1492 11.4208 12.1192C11.4705 12.1037 11.5213 12.0914 11.5725 12.0818C11.991 12.0032 12.4106 11.9309 12.8295 11.8542L13.9592 11.6474L13.9142 11.7775L13.8599 12.0242L13.8571 12.0398C13.8186 12.4634 13.7649 12.8859 13.7413 13.3106C13.7142 13.7987 13.7094 14.288 13.7051 14.7768C13.7031 15.0058 13.7083 15.2352 13.7224 15.4638C13.7348 15.6628 13.7522 15.8624 13.7849 16.0591C13.8136 16.2322 13.8577 16.4029 13.9063 16.5716C13.9783 16.8217 14.1133 17.0686 14.3294 17.2219C14.4037 17.2746 14.4881 17.3136 14.5771 17.3335C14.8587 17.3967 15.1564 17.2545 15.3769 17.0904C15.6107 16.9162 15.8626 16.7176 16.0586 16.4931L16.7208 15.7345C16.8512 15.9619 16.9918 16.1838 17.1119 16.4168C17.2293 16.6443 17.328 16.8811 17.4325 17.1149C17.4857 17.234 17.5374 17.428 17.4454 17.5435C17.4386 17.5521 17.4309 17.56 17.4227 17.5673Z" fill="white"/>
</g>
<defs>
<clipPath id="clip0_34_2596">
<rect width="14.4" height="14.4" fill="white" transform="translate(13.2656 4.96875) rotate(35.1898)"/>
</clipPath>
</defs>
</svg>
